<svg xmlns="http://www.w3.org/2000/svg" width="264" height="50" viewBox="0 0 264 50"><defs><style>.cls-1{fill:#c998a0;}.cls-2{fill:#fff;}.cls-3{fill:none;stroke:#fff;stroke-miterlimit:10;stroke-width:1.65px;}</style></defs><title>アセット 1</title><g id="レイヤー_2" data-name="レイヤー 2"><g id="レイヤー_1-2" data-name="レイヤー 1"><rect class="cls-1" width="264" height="50" rx="25" ry="25"/><path class="cls-2" d="M31.33,21.49a.81.81,0,0,1-.6-.24.82.82,0,0,1-.24-.59.84.84,0,0,1,.84-.83H43.61a.84.84,0,0,1,.84.83,4.09,4.09,0,0,1-.3,1.59,10.84,10.84,0,0,1-3.53,4.33.86.86,0,0,1-.69.17,1.09,1.09,0,0,1-.64-.38.86.86,0,0,1-.16-.67,1,1,0,0,1,.37-.59,9,9,0,0,0,2.85-3.49c0-.09,0-.13-.11-.13Zm4.05,2.66a1,1,0,0,1,.3-.67.89.89,0,0,1,.67-.28.88.88,0,0,1,.67.28.87.87,0,0,1,.25.67,13,13,0,0,1-1,5.29,7.74,7.74,0,0,1-3.16,3.14.86.86,0,0,1-.67.09.91.91,0,0,1-.56-.4.77.77,0,0,1-.09-.63.85.85,0,0,1,.38-.52,5.93,5.93,0,0,0,2.43-2.54A11.81,11.81,0,0,0,35.38,24.15Z"/><path class="cls-2" d="M50.59,26.71A.87.87,0,0,1,50,27a.88.88,0,0,1-.62-.22.77.77,0,0,1-.26-.58.75.75,0,0,1,.22-.59,12.63,12.63,0,0,0,3.11-6,1.12,1.12,0,0,1,.38-.61,1,1,0,0,1,.67-.22.93.93,0,0,1,.61.31.69.69,0,0,1,.16.63c0,.25-.11.57-.2.95,0,.09,0,.13.13.13h6.28a1.06,1.06,0,0,1,1,1v.6a11.76,11.76,0,0,1-3,7.28Q55.92,32.24,50.92,33a.82.82,0,0,1-.64-.15.85.85,0,0,1-.37-.57.7.7,0,0,1,.13-.61.86.86,0,0,1,.55-.33A11,11,0,0,0,57,28.58a9.67,9.67,0,0,0,2.6-6c0-.11,0-.16-.14-.16H53.65a.21.21,0,0,0-.22.13A14.2,14.2,0,0,1,50.59,26.71Z"/><path class="cls-2" d="M67,24.64a.88.88,0,0,1-.63-.15.86.86,0,0,1-.33-.55.84.84,0,0,1,.14-.62.83.83,0,0,1,.56-.34l3.31-.54a.17.17,0,0,0,.15-.18V19.65A.92.92,0,0,1,70.5,19a.88.88,0,0,1,.67-.28.91.91,0,0,1,.67.28.89.89,0,0,1,.28.67V22c0,.1,0,.15.14.12l8-1.29a.76.76,0,0,1,.62.15.83.83,0,0,1,.34.55,3,3,0,0,1-.16,1.62,11.34,11.34,0,0,1-3.42,4.43.94.94,0,0,1-.68.19.9.9,0,0,1-.62-.32.84.84,0,0,1,.13-1.22,11.32,11.32,0,0,0,2.84-3.41s0-.05,0-.09a.09.09,0,0,0-.09,0l-7,1.11a.18.18,0,0,0-.14.18v4.81a3.12,3.12,0,0,0,.41,2,2.75,2.75,0,0,0,1.88.43A34.1,34.1,0,0,0,80,30.69a.77.77,0,0,1,.61.14.67.67,0,0,1,.29.54.85.85,0,0,1-.18.63.81.81,0,0,1-.57.34,34.67,34.67,0,0,1-5.8.49c-1.69,0-2.81-.26-3.34-.79s-.8-1.65-.8-3.35V24.28c0-.11,0-.15-.15-.13Z"/><path class="cls-2" d="M86.5,32.49a.87.87,0,0,1-.67,0,.94.94,0,0,1-.5-.46.84.84,0,0,1,0-.64.82.82,0,0,1,.45-.48,19.91,19.91,0,0,0,5.84-4,15.64,15.64,0,0,0,3.68-5.23c0-.1,0-.15-.11-.15H87.53a.79.79,0,0,1-.83-.82.79.79,0,0,1,.83-.83h9a.86.86,0,0,1,.59.23.81.81,0,0,1,.24.6,3.78,3.78,0,0,1-.33,1.62,18,18,0,0,1-2.82,4.37.16.16,0,0,0,0,.22c1.47,1.38,2.91,2.78,4.3,4.19a.89.89,0,0,1,.25.64.81.81,0,0,1-.27.62.9.9,0,0,1-.65.25.87.87,0,0,1-.64-.27Q95,30.09,93,28.2a.13.13,0,0,0-.21,0A21.83,21.83,0,0,1,86.5,32.49Z"/><path class="cls-2" d="M105.54,27.52a1.06,1.06,0,0,1-1-1v-.65a1.06,1.06,0,0,1,1-1h.65a1.06,1.06,0,0,1,1,1v.65a1.06,1.06,0,0,1-1,1Z"/><path class="cls-2" d="M112.49,26.38a.78.78,0,0,1-.56-1.34.77.77,0,0,1,.56-.24h2.18a1,1,0,0,1,1,1v4.34a.59.59,0,0,0,.07.29,3.21,3.21,0,0,0,2,1.42,21.44,21.44,0,0,0,4.83.36h4.18a.71.71,0,0,1,.55.23.73.73,0,0,1,.21.56.82.82,0,0,1-.85.79h-4.18a24,24,0,0,1-4.91-.38A4.66,4.66,0,0,1,115,32.11c-.08-.08-.16-.1-.22,0a15.47,15.47,0,0,1-1.76,1.51.69.69,0,0,1-.63.13.81.81,0,0,1-.52-.4.91.91,0,0,1-.09-.69,1,1,0,0,1,.4-.58,16.09,16.09,0,0,0,1.56-1.28.3.3,0,0,0,.09-.24v-4c0-.11,0-.17-.14-.17Zm.13-7.18a.9.9,0,0,1,.64-.21.84.84,0,0,1,.6.27c.55.57,1.16,1.23,1.82,2a.79.79,0,0,1,.21.58.87.87,0,0,1-.28.57.76.76,0,0,1-.61.21.85.85,0,0,1-.58-.28c-.82-.89-1.43-1.54-1.84-1.95a.79.79,0,0,1-.22-.59A.71.71,0,0,1,112.62,19.2ZM123.26,26a.06.06,0,0,0-.06.05.07.07,0,0,0,0,.08,33.43,33.43,0,0,1,3.2,3.78.86.86,0,0,1-.84,1.38.77.77,0,0,1-.56-.34,38,38,0,0,0-2.57-3.28c-.08-.07-.13-.06-.16,0a8.12,8.12,0,0,1-3.66,3.47,1,1,0,0,1-.73.1,1.09,1.09,0,0,1-.62-.4.66.66,0,0,1-.12-.58.69.69,0,0,1,.39-.46A6,6,0,0,0,121,26.12c0-.09,0-.13-.13-.13h-3.56a.78.78,0,0,1,0-1.55h3.76a.13.13,0,0,0,.14-.14V22.53c0-.11,0-.16-.14-.16h-3.4a.74.74,0,0,1-.55-.22.76.76,0,0,1-.23-.55.71.71,0,0,1,.23-.54.74.74,0,0,1,.55-.22h1.72a.05.05,0,0,0,.06,0,.1.1,0,0,0,0-.09.28.28,0,0,1-.09-.14c-.22-.43-.43-.84-.65-1.24a.65.65,0,0,1,0-.59.64.64,0,0,1,.42-.38,1,1,0,0,1,.69,0,1.15,1.15,0,0,1,.55.47l.67,1.22a.64.64,0,0,1,0,.63c0,.09,0,.13.07.13h1.84c.07,0,.12-.05.14-.14a1.15,1.15,0,0,1,.07-.22c.33-.58.61-1.11.85-1.6a1.05,1.05,0,0,1,1.19-.58.73.73,0,0,1,.47.39.57.57,0,0,1,0,.58c-.07.16-.32.63-.74,1.41a.09.09,0,0,0,0,.1.08.08,0,0,0,.08.06h1.13a.74.74,0,0,1,.55.22.7.7,0,0,1,.22.54.75.75,0,0,1-.22.55.74.74,0,0,1-.55.22h-2.88c-.1,0-.14.05-.14.16V24.3a.12.12,0,0,0,.14.14h3.19a.76.76,0,0,1,.55.23.79.79,0,0,1,0,1.09.76.76,0,0,1-.55.23Z"/><path class="cls-2" d="M130.76,26.38a.73.73,0,0,1-.55-.23.8.8,0,0,1,.55-1.35h2.18a1,1,0,0,1,1,1v4.34a.59.59,0,0,0,.07.29,3.21,3.21,0,0,0,2,1.42,21.54,21.54,0,0,0,4.84.36H145a.71.71,0,0,1,.55.23.73.73,0,0,1,.21.56.8.8,0,0,1-.26.57.85.85,0,0,1-.59.22h-4.17a24.12,24.12,0,0,1-4.92-.38,4.74,4.74,0,0,1-2.52-1.31c-.08-.08-.15-.1-.22,0a15.47,15.47,0,0,1-1.76,1.51.69.69,0,0,1-.63.13.81.81,0,0,1-.52-.4.91.91,0,0,1-.09-.69,1,1,0,0,1,.4-.58A16.09,16.09,0,0,0,132,30.76a.3.3,0,0,0,.09-.24v-4c0-.11,0-.17-.14-.17Zm.13-7.18a.9.9,0,0,1,.64-.21.84.84,0,0,1,.6.27c.55.57,1.16,1.23,1.82,2a.75.75,0,0,1,.21.58.87.87,0,0,1-.28.57.76.76,0,0,1-.61.21.85.85,0,0,1-.58-.28c-.82-.89-1.43-1.54-1.84-1.95a.79.79,0,0,1-.22-.59A.71.71,0,0,1,130.89,19.2Zm12.19,9.53c.28,0,.45,0,.5-.11a2.19,2.19,0,0,0,.07-.78v-7a.14.14,0,0,0-.16-.16h-2.12c-.1,0-.15.05-.15.16v10a.92.92,0,0,1-.26.65.85.85,0,0,1-.64.27.92.92,0,0,1-.92-.92V20.25c0-.1,0-.13-.14-.11-.65.19-1.41.38-2.29.57a.19.19,0,0,0-.16.19v6.82c0,.09,0,.13.13.11s.59-.24,1.27-.53a.51.51,0,0,1,.52,0,.53.53,0,0,1,.24.47,1.24,1.24,0,0,1-.22.71,1.27,1.27,0,0,1-.55.48,29.58,29.58,0,0,1-2.92,1.08.79.79,0,0,1-.6-.07.68.68,0,0,1-.37-.47.86.86,0,0,1,.57-1h0a.17.17,0,0,0,.13-.16V20.43a1.14,1.14,0,0,1,.28-.77,1.19,1.19,0,0,1,.69-.42c1-.2,2.11-.48,3.27-.83a.84.84,0,0,1,.66.06.82.82,0,0,1,.41.52.15.15,0,0,0,.16.12h3.89a.94.94,0,0,1,.7.3,1,1,0,0,1,.29.71v7.69a4.74,4.74,0,0,1-.27,2.1c-.18.27-.66.4-1.44.4l-.92,0a1,1,0,0,1-.62-.24.93.93,0,0,1-.33-.57.65.65,0,0,1,.14-.55.58.58,0,0,1,.5-.22h.62Z"/><path class="cls-2" d="M153.23,20.05a.91.91,0,0,1,.62.31.83.83,0,0,1,.2.66,28.72,28.72,0,0,1-3.52,10.77,1.06,1.06,0,0,1-1.35.39.85.85,0,0,1-.45-.56.84.84,0,0,1,.09-.72,27.28,27.28,0,0,0,3.38-10,1,1,0,0,1,.34-.64A1,1,0,0,1,153.23,20.05Zm5.4,1.55-.42-.74c-.18-.32-.31-.57-.39-.74a.72.72,0,0,1-.07-.61.68.68,0,0,1,.37-.47.82.82,0,0,1,.65-.06.75.75,0,0,1,.5.4c.19.33.45.83.81,1.5a.78.78,0,0,1,.07.61.75.75,0,0,1-.41.45.78.78,0,0,1-.62,0A.76.76,0,0,1,158.63,21.6ZM161,24.15a68.82,68.82,0,0,1,2.23,7.15.91.91,0,0,1-.1.75.85.85,0,0,1-.6.42,1.05,1.05,0,0,1-.75-.14,1,1,0,0,1-.46-.6q-1-3.8-2.12-7a.81.81,0,0,1,0-.71.84.84,0,0,1,.53-.46,1,1,0,0,1,.75.07A.93.93,0,0,1,161,24.15Zm1.84-3.28a.73.73,0,0,1-.42.47.86.86,0,0,1-1.13-.37l-.83-1.48a.75.75,0,0,1-.06-.62.79.79,0,0,1,.4-.48.84.84,0,0,1,.64-.06.88.88,0,0,1,.51.4c.2.34.47.85.83,1.52A.74.74,0,0,1,162.86,20.87Z"/><path class="cls-2" d="M168.85,32.49a.87.87,0,0,1-.67,0,.94.94,0,0,1-.5-.46.84.84,0,0,1,0-.64.82.82,0,0,1,.45-.48,20.09,20.09,0,0,0,5.85-4,15.75,15.75,0,0,0,3.67-5.23c0-.1,0-.15-.11-.15h-7.63a.79.79,0,0,1-.83-.82.79.79,0,0,1,.83-.83h9.05a.86.86,0,0,1,.59.23.81.81,0,0,1,.24.6,3.93,3.93,0,0,1-.32,1.62,18.37,18.37,0,0,1-2.83,4.37.16.16,0,0,0,0,.22c1.47,1.38,2.91,2.78,4.3,4.19a.89.89,0,0,1,.25.64.81.81,0,0,1-.27.62.89.89,0,0,1-.64.25.88.88,0,0,1-.65-.27c-1.49-1.5-2.89-2.88-4.22-4.14a.13.13,0,0,0-.21,0A21.83,21.83,0,0,1,168.85,32.49Z"/><path class="cls-2" d="M215.66,17.62a1.88,1.88,0,0,0-3.76,0s0,.07,0,.1a8.28,8.28,0,0,0-7.51,0v-.1a1.88,1.88,0,1,0-2.12,1.86,5,5,0,0,0-1.1,3.11c0,3.19,3.12,5.78,7,5.78s7-2.59,7-5.78a5,5,0,0,0-1.1-3.11A1.88,1.88,0,0,0,215.66,17.62Zm-1.88-.9a.9.9,0,1,1-.9.9A.9.9,0,0,1,213.78,16.72Zm-3.88,2.71c.16,0,.19-.28.37-.12.14,0,.21.13.32,0,0,.12.21.1.2.23s.08.21.07.32-.07.32-.12.47a3,3,0,0,1-.06.42c.08.06,0,.2,0,.29s0,.2,0,.29a.41.41,0,0,0,.06.24c0,.08.09.12,0,.17s.16.13.16.26.07.13.18.14.16.06.22.12a.67.67,0,0,1,.2,0c.06,0,.1-.08.19,0s0-.09.06-.13a1.61,1.61,0,0,0,.24-.29c0-.06,0-.15.09-.17a3.75,3.75,0,0,0,.13-.58,1.39,1.39,0,0,1,.06-.19,4.85,4.85,0,0,0,0-.66c-.07,0,0-.11,0-.17s-.12-.32-.27-.41a.31.31,0,0,1-.05-.26c.12-.22.34-.22.56-.22a1,1,0,0,1,.57.66c0,.26.14.53,0,.78a4.25,4.25,0,0,1,0,.94,5.48,5.48,0,0,0-.17.67c0,.12-.08.24-.1.36s-.07.06-.1.09-.11.17-.15.28a.12.12,0,0,0,0,.13s-.07.11-.14.11a1.27,1.27,0,0,1-.34.23c-.06.07-.16,0-.22.11s-.26.12-.4.05a.5.5,0,0,1-.21,0c0-.13-.16,0-.23-.13s-.28,0-.36-.16-.05,0-.07,0-.17,0-.14-.14-.12,0-.13-.08a.05.05,0,0,1,0,0c0-.1-.12-.12-.09-.21s0,0-.06,0-.06-.13-.12-.18,0-.07-.06-.11-.12-.24-.09-.39-.1-.24-.06-.39,0-.18-.08-.29c0-.26-.14-.51-.08-.77,0-.1-.07-.22,0-.33a.69.69,0,0,1,0-.49A.41.41,0,0,1,209.9,19.43Zm-2.41.67V20c.08-.12,0-.3.2-.38s.18-.21.33-.21.12,0,.19,0,.28,0,.31.19c.2.15,0,.41.2.58,0,.22-.18.39-.09.63-.09.11.05.22,0,.33a1.68,1.68,0,0,1-.08.68,4.38,4.38,0,0,0,0,.52c-.07.07.07.14,0,.22a.41.41,0,0,0,0,.19,1.25,1.25,0,0,1-.08.74c0,.08-.11.22-.22.26s-.26,0-.36-.08a.52.52,0,0,1-.22-.45c-.1-.11-.05-.28-.08-.41a.85.85,0,0,0,0-.5c0-.48,0-.9,0-1.35a1,1,0,0,0,0-.24c.06-.17-.07-.34,0-.5S207.41,20.14,207.49,20.1Zm-3.92-.41a1.38,1.38,0,0,0,.3-.24c.11-.07.25-.08.34-.18a.47.47,0,0,0,.21,0,.35.35,0,0,0,.25,0c.24-.06.44.1.64,0,.15,0,.36,0,.49.06s.25.23.42.35,0,.18.1.25-.06,0,0,.08a2.3,2.3,0,0,1,0,.37c-.06.06,0,.14-.13.16s-.15.13-.22.22-.3,0-.46,0-.2,0-.27-.14-.1-.15-.15-.22-.17-.05-.25-.1a2.6,2.6,0,0,0-.46.12c0,.07-.09.06-.14.08a.41.41,0,0,0-.06.33c.1.09.14.24.27.29l.31.27c.1,0,.12.12.22.12s.23,0,.28.15.36.19.46.37.37.29.34.53a1,1,0,0,1,0,.51.45.45,0,0,1-.23.26,1.62,1.62,0,0,1-1,.32l0,0a3.58,3.58,0,0,1-.48,0c-.15,0-.34,0-.46-.16s-.12,0-.18,0-.15-.13-.16-.26,0-.32.13-.42a.46.46,0,0,1,.44-.19c.09.08.22-.1.28.06.25-.06.39.35.62.1.07,0,.08-.12.1-.2s-.13-.21-.25-.21a4,4,0,0,1-.34-.22c-.21-.12-.45-.19-.67-.29a.7.7,0,0,0-.35-.16,1,1,0,0,1-.33-.29,1.09,1.09,0,0,1-.11-.54l0,0c0-.08-.1-.17,0-.24s.12-.13.05-.23.11-.16.1-.27S203.5,19.83,203.57,19.69Zm.87,5.18c0,.07,0,.14-.05.19a.18.18,0,0,1-.19.07c-.07,0-.11-.08-.16-.13a.2.2,0,0,1,.06-.21.31.31,0,0,1,.23,0C204.36,24.8,204.43,24.81,204.44,24.87Zm-2.81-7.25a.9.9,0,1,1,.9.9A.9.9,0,0,1,201.63,17.62Zm.93,7.4a.16.16,0,0,1,0,.12l-.08.06s-.09,0-.12,0-.08-.08-.06-.13,0-.06,0-.09,0-.08.06-.11l0-.05.12-.13c0-.05,0,0,.07-.08s0-.08.08-.08,0-.06.06-.07a.28.28,0,0,1,.09-.1.12.12,0,0,1,.05-.05,3.47,3.47,0,0,1,.25-.29.26.26,0,0,1,.26-.08s0,0,.05,0,.1.07.09.14,0,.12-.05.18-.08,0-.08.06a.18.18,0,0,0-.07.05s0,0,0,0-.07,0-.13,0-.08.06-.12.1h0s-.08.06-.11.1,0,0,0,0,0,0,0,.06-.06,0-.07.06a.64.64,0,0,1-.13.15S202.59,25,202.56,25Zm.4,0s0,0-.05,0,0,.07,0,.1,0,.11,0,.17a.7.7,0,0,0,.15.23s.05.07,0,.1a.17.17,0,0,1-.06.1s-.06,0-.07,0-.09-.12-.15-.17-.07-.07-.08-.13-.07-.19-.09-.29,0-.14.06-.22.12-.08.17-.13l.17,0a.59.59,0,0,1,.14,0,.68.68,0,0,1,.29,0,.22.22,0,0,1,.19.07s.06.08,0,.13-.06.08-.1.11-.09.05-.14,0-.07,0-.09,0-.07-.06-.11-.06-.08,0-.12,0Zm.69.73c-.05,0-.07.08-.12.11s-.06.07,0,.11,0,0,.06,0a0,0,0,0,1,0,.06s-.05.05-.1.05-.07,0-.1,0a.19.19,0,0,1-.13-.14,1.15,1.15,0,0,1,.06-.17c.06-.12.16-.18.22-.29a.71.71,0,0,1,.12-.13c0-.07.1-.08.12-.15s.07,0,.06-.06.13,0,.18,0,.08.07.08.13,0,.07-.06.09,0,.06-.07.07a.5.5,0,0,1-.13.12.93.93,0,0,0-.1.1S203.66,25.75,203.65,25.77Zm1,.72s0,0,0,0,0,0,0,0,0,.08,0,.13a.26.26,0,0,1-.14.15s-.06,0-.09,0,0-.06,0-.08,0-.09,0-.14a.25.25,0,0,1,0-.09s0-.06,0-.09,0-.09,0-.11,0,0,0,0,0-.05,0-.07-.1-.05-.15,0-.08,0-.12,0-.07,0-.09.06-.06.08-.1.1a.23.23,0,0,1-.07.1s0,0,0,0-.07.06-.12,0,0,0,0,0-.08-.09,0-.15,0,0,0-.07a.3.3,0,0,0,.08-.16h0a.42.42,0,0,1,.11-.15s0-.05,0-.05.12-.15.18-.23l.08-.05c.08,0,.21,0,.24.08s0,.09,0,.14,0,0,0,.06.17.12.24.2a.23.23,0,0,1,0,.27C204.71,26.39,204.67,26.44,204.65,26.49Zm1.15.55c-.05.09-.07.22-.17.26s0,.1-.11.11-.14,0-.15-.12,0-.07,0-.1l-.09,0a.33.33,0,0,1-.17,0,.17.17,0,0,1-.1,0s0,0-.07-.06a1,1,0,0,1-.14-.29s0-.06,0-.09,0,0,0-.07a.3.3,0,0,0,0-.16s0-.08.05-.08,0-.09.09-.11.09-.05.14-.05a.58.58,0,0,1,.34.09s.08.05.11.08a.21.21,0,0,0,.15.05c.05,0,0-.07,0-.11a.37.37,0,0,0,.05-.2s0-.06,0-.08,0,0,0-.07a.18.18,0,0,1,.1-.16s.06-.1.11-.07.08,0,.12,0,0,0,0,0,0,.07,0,.1-.09.29-.08.43,0,.13-.09.2,0,0,0,.08a.34.34,0,0,0-.05.17A1,1,0,0,1,205.8,27Zm1,0c0,.05-.08,0-.12.08s-.15,0-.23.05-.07,0-.11,0-.05,0-.08-.06a.11.11,0,0,1,0-.11c.07,0,.16,0,.23,0s.12-.06.07-.12-.11,0-.17,0-.11,0-.14.08-.05,0-.06.09,0,0,0,0,0,0,0,.06a.45.45,0,0,0,.11.13.32.32,0,0,0,.19,0,.17.17,0,0,0,.1-.06s0-.1.06-.1a.08.08,0,0,1,.08,0s.07.06.05.1,0,.06,0,.09,0,.11-.08.12a.5.5,0,0,1-.13.05.78.78,0,0,1-.37,0s-.15,0-.18-.1-.06-.05-.09-.08a.15.15,0,0,1,0-.13c-.05,0,0-.1,0-.15s.06-.09.06-.15.07-.06.09-.1a.39.39,0,0,1,.19-.12s.05,0,.07,0,.1,0,.14-.07.09,0,.14,0,.12,0,.18,0,.05.07.09.08a.45.45,0,0,1,0,.16C206.91,26.94,206.9,27,206.82,27.05Zm1,.17c-.05,0-.08,0-.13,0s0,0,0-.06-.07-.09-.12-.11-.11,0-.16.06-.06.05-.07.09,0,.12-.06.18,0,.07,0,.1.05.11,0,.16a.11.11,0,0,1,0,.08s-.09.07-.15,0-.09,0-.08-.07,0,0,0,0,0-.12,0-.18a.06.06,0,0,1,0,0s0,0,0,0,0-.09,0-.14a.22.22,0,0,0,0-.14c0-.07,0-.14,0-.21s0-.08,0-.11,0-.06,0-.08.07-.11.13-.14.08,0,.11,0l0,0c.06,0,.07.06.1.1s0,.06,0,.09,0,0,0,0,.1.06.16.05,0,0,.05.05a.6.6,0,0,1,.11.06c0,.05.06.06.06.11a.09.09,0,0,1,0,.06S207.92,27.2,207.86,27.22Zm1.2.46s0,.08-.06.08-.09,0-.11,0-.07.07-.07.13,0,0-.06.05,0,0,0,.06-.14.05-.21.11-.1,0-.15,0-.13,0-.17-.09,0-.06-.05-.06a.25.25,0,0,1,0-.25s0-.08.06-.09a.11.11,0,0,1,0-.05s.07,0,.07,0,.09-.06.15,0,.12,0,.18,0,.07,0,.09,0,0-.09,0-.13a.06.06,0,0,0,0-.06s0,0,0,0,0,0,0,0a.2.2,0,0,1-.12.06.28.28,0,0,1-.28,0s-.08,0-.1-.06a.41.41,0,0,1,0-.08.2.2,0,0,1,0-.2s0-.05,0-.08,0-.05,0-.09,0-.08.1-.1.05,0,.05-.07a.7.7,0,0,1,.1-.08s.06,0,.07,0,.07,0,.1,0a1.36,1.36,0,0,1,.2,0c.06,0,.08.06.13.07s0,.05.06.09.08.11.09.18a.06.06,0,0,1,0,.07,0,0,0,0,0,0,0s0,.09,0,.13a1.65,1.65,0,0,0,0,.21.38.38,0,0,0,0,.1s.06,0,.06.07A.06.06,0,0,1,209.06,27.68Zm-.91-2.28c-.51,0-.93-.25-.93-.57s.42-.58.93-.58.94.26.94.58S208.67,25.4,208.15,25.4Zm2.23,1.9h0a.12.12,0,0,1-.07.12s-.06,0-.07,0-.09.09-.18.08-.17,0-.22-.11,0,0,0,0a.19.19,0,0,1-.15.12c0,.08-.12,0-.14.11s-.11,0-.17,0-.06-.07-.1-.09a.6.6,0,0,1,0-.26s0-.08,0-.11,0-.11,0-.15,0-.06,0-.08,0-.06,0-.11.08-.09.12-.16.07-.09.12-.11.13-.1.2,0,.1,0,.11.11,0,.08,0,.12.09,0,.1,0a.22.22,0,0,1,0,.14s0,0,0,0a1.21,1.21,0,0,0,0,.19s0,.07.09.07.09,0,.12-.05.06-.05.08,0,.09,0,.12.05A.07.07,0,0,1,210.38,27.3Zm.82-.63s-.09,0-.13,0,0,0-.06,0-.1-.06-.15,0-.08.08-.12.12a.14.14,0,0,0,0,.11c0,.06,0,.12,0,.19s0,.07,0,.08.09.08.08.15,0,0,0,.07-.06.1-.12.1-.09,0-.11,0,0,0,0,0-.07-.11-.08-.16a.05.05,0,0,1,0,0s0,0,0,0a.23.23,0,0,0-.06-.12.65.65,0,0,0,0-.13c0-.08-.07-.13-.08-.21s0-.07,0-.1,0-.06,0-.08a.19.19,0,0,1,.06-.19s.07,0,.1,0h0c.05,0,.09,0,.13.06l.05.07s0,0,0,0,.11,0,.17,0,0,0,.06,0,.08,0,.12,0,.09,0,.1.08a.05.05,0,0,1,.06,0S211.24,26.63,211.2,26.67Zm1-.18c0,.08,0,.18-.1.23a.22.22,0,0,1-.16.09h-.13s-.05-.05-.09,0-.07-.07-.1-.1a.68.68,0,0,1-.18-.26s0,0-.05,0-.12,0-.17,0a.2.2,0,0,1-.08-.2.4.4,0,0,1,.13-.13c0-.06,0-.08,0-.14s0,0,0,0,0-.07,0-.08,0-.18.06-.23.05,0,.08-.05l0,0a.29.29,0,0,1,.16.18c0,.07,0,.14,0,.21s.09.05.13.08.06.08,0,.12l0,.08a1.88,1.88,0,0,0,.14.24s0,0,0,0,0,0,.07,0,.12-.08.16-.14,0,0,0-.06a.57.57,0,0,0,0-.13.05.05,0,0,1,0-.05c.06,0,.05.1.08.13s0,0,0,.06A.33.33,0,0,0,212.19,26.49Zm.94-.6a.5.5,0,0,1,0,.13c-.05.13-.16.18-.26.28s-.12.1-.19.07a.25.25,0,0,1-.12,0,.19.19,0,0,1-.11-.07c-.06,0-.09-.05-.13-.08s0-.1-.08-.14,0-.09,0-.13a.61.61,0,0,1,0-.23s0,0,0-.07.06-.09,0-.14.06-.07.07-.12.08-.1.14-.12.09,0,.12,0a.75.75,0,0,1,.15.09.22.22,0,0,1,.06.21c0,.05,0,.08,0,.13a2,2,0,0,0-.1.21s-.07.05-.06.09-.06,0-.1,0a.1.1,0,0,1-.07-.08c0-.08.11-.11.14-.18s0-.13-.05-.13-.07.09-.1.13-.05.11,0,.16a.16.16,0,0,0,0,.1s0,0,0,0,0,0,.06,0,.11,0,.16,0a.38.38,0,0,0,.15-.13.15.15,0,0,0,0-.11c0-.05-.09-.06,0-.12a.15.15,0,0,1,.06,0s.09,0,.11,0,.06,0,.09,0S213.16,25.85,213.13,25.89Zm.86-.81s-.06,0-.08,0-.08,0-.13,0l-.09-.05s-.05,0-.08,0-.1,0-.1-.05,0,0-.06,0,0,0-.07,0-.06.09-.06.15,0,.08,0,.11,0,.07.05.1.07.07.08.12a.14.14,0,0,1,.09.08s0,0,0,0,0,.08,0,.12,0,0,0,0-.1.08-.15,0,0,0-.06,0a.33.33,0,0,0-.15-.11h0a.53.53,0,0,1-.13-.13s0,0,0-.05-.12-.14-.2-.21a.24.24,0,0,0,0-.09c0-.08,0-.21.11-.22s.09,0,.13,0,0,0,.06.05.14-.15.23-.21a.26.26,0,0,1,.28,0c.06,0,.1.05.15.07s0,0,0,0l0,0c.05,0,.08,0,.13,0A.24.24,0,0,1,214,25S214,25.05,214,25.08Z"/><path class="cls-2" d="M208.47,27.67s-.07,0-.1.06-.09.09-.13.15.19.12.29.06.12-.18.14-.28h-.06A.23.23,0,0,1,208.47,27.67Z"/><path class="cls-2" d="M205.42,26.85a.3.3,0,0,0-.1-.17c0-.05-.07-.06-.09-.11s-.1,0-.13,0,0,.21,0,.3h0s.08,0,.09.09.12,0,.16,0,0,.06,0,.07l0,0a.59.59,0,0,0,0-.14S205.4,26.87,205.42,26.85Z"/><path class="cls-2" d="M208.56,26.93a.22.22,0,0,0-.23.07c-.05,0,0,.06-.07.09a.11.11,0,0,0,0,.11.11.11,0,0,0,.08,0c.07,0,.11-.08.18-.1s.05,0,.05,0,0-.06,0-.1Z"/><path class="cls-2" d="M209.65,27c-.05,0-.07,0-.1.05s0,.05,0,.08,0,.08-.05.11,0,.07,0,.12,0,0,.08,0,.1-.1.13-.15a.16.16,0,0,0,0-.16S209.67,27,209.65,27Z"/><line class="cls-3" x1="217.85" y1="35.06" x2="207.89" y2="35.06"/><line class="cls-3" x1="220.63" y1="35.06" x2="214.23" y2="35.06"/><path class="cls-2" d="M224.81,32.36a2.53,2.53,0,1,1-2.53,2.53,2.54,2.54,0,0,1,2.53-2.53m0-1.64A4.17,4.17,0,1,0,229,34.89a4.18,4.18,0,0,0-4.17-4.17Z"/><path class="cls-2" d="M203.72,32.36a2.53,2.53,0,1,1-2.53,2.53,2.54,2.54,0,0,1,2.53-2.53m0-1.64a4.17,4.17,0,1,0,4.17,4.17,4.18,4.18,0,0,0-4.17-4.17Z"/><path class="cls-3" d="M229,34.94h4.43A1.56,1.56,0,0,0,235,33.38V25.94a3.84,3.84,0,0,0-3.83-3.83H220.39V13.34a1.82,1.82,0,0,0-1.83-1.82H196.23a1.81,1.81,0,0,0-1.82,1.82V33.23a1.82,1.82,0,0,0,1.82,1.83h3.31"/><path class="cls-3" d="M220.39,13.62h4.33a3.48,3.48,0,0,1,3,2L232,22"/></g></g></svg>