<svg xmlns="http://www.w3.org/2000/svg" width="148.36" height="31.41" viewBox="0 0 148.36 31.41"><defs><style>.cls-1{fill:#323333;}</style></defs><title>アセット 13</title><g id="レイヤー_2" data-name="レイヤー 2"><g id="お知らせ"><path class="cls-1" d="M7.56,30.51a8.84,8.84,0,0,1-5.33-1.62A4.63,4.63,0,0,1,0,25.11a6.76,6.76,0,0,1,2.39-4.7,17.52,17.52,0,0,1,6.32-3.8A.47.47,0,0,0,9,16.18c0-.34,0-.83,0-1.48s0-1.14,0-1.47l-.1-3.89c0-.22-.09-.33-.26-.33q-3.81.15-5.79.15A1.23,1.23,0,0,1,1.58,7.93a1.12,1.12,0,0,1,.36-.84,1.21,1.21,0,0,1,.87-.34c1.32,0,3.23,0,5.72-.15a.25.25,0,0,0,.29-.29c0-.91,0-2.3,0-4.17a1.38,1.38,0,0,1,.4-1,1.28,1.28,0,0,1,1-.42,1.26,1.26,0,0,1,1,.42,1.34,1.34,0,0,1,.4,1c0,.89,0,2.22.07,4a.25.25,0,0,0,.29.29q3.57-.21,7.56-.65a1.22,1.22,0,0,1,.85.27,1.11,1.11,0,0,1,.41.81,1.2,1.2,0,0,1-.31.9,1.14,1.14,0,0,1-.81.44c-2.71.28-5.26.5-7.66.64a.25.25,0,0,0-.29.29c0,.46,0,1.14,0,2s0,1.58,0,2c0,.24,0,.61,0,1.1s0,.86,0,1.1.1.26.29.21A28,28,0,0,1,17.64,15a11.16,11.16,0,0,1,7.24,2.14A7.06,7.06,0,0,1,27.5,23a7.78,7.78,0,0,1-2.16,5.76,7.78,7.78,0,0,1-5.76,2.16,13.19,13.19,0,0,1-3-.33A1.09,1.09,0,0,1,15.8,30a1.39,1.39,0,0,1-.14-1,.94.94,0,0,1,.49-.7A1.17,1.17,0,0,1,17,28.2a11.45,11.45,0,0,0,2.48.25A5.2,5.2,0,0,0,23.38,27a5.37,5.37,0,0,0,1.42-4,4.87,4.87,0,0,0-1.92-4.12,9.26,9.26,0,0,0-5.64-1.46,20.91,20.91,0,0,0-5.11.62.36.36,0,0,0-.32.39q.07,4.39.07,6.63a6.65,6.65,0,0,1-1,4.17A4,4,0,0,1,7.56,30.51ZM8.82,19.2A14.54,14.54,0,0,0,4.43,22a4.42,4.42,0,0,0-1.66,3,2.68,2.68,0,0,0,1.32,2.14,5.1,5.1,0,0,0,3.11.95,1.78,1.78,0,0,0,1.51-.57,4.47,4.47,0,0,0,.43-2.41c0-1.3,0-3.22-.07-5.76C9.07,19.15,9,19.11,8.82,19.2ZM25.09,6c1.56,1.6,2.88,3.07,4,4.39a1.12,1.12,0,0,1,.25.92,1.24,1.24,0,0,1-.46.84,1.16,1.16,0,0,1-.94.25A1.25,1.25,0,0,1,27,12C26,10.65,24.68,9.24,23.22,7.75a1.14,1.14,0,0,1-.34-.88A1.3,1.3,0,0,1,25.09,6Z"/><path class="cls-1" d="M39.46,15.82a1.19,1.19,0,0,1-.87-.36,1.15,1.15,0,0,1-.36-.83,1.21,1.21,0,0,1,.38-.85,1.16,1.16,0,0,1,.85-.37h6a.26.26,0,0,0,.29-.29V6.17a.26.26,0,0,0-.29-.29H43.2c-.24,0-.37.09-.4.25a35.81,35.81,0,0,1-2,5.12,1.14,1.14,0,0,1-.7.64,1.3,1.3,0,0,1-.95,0,1.11,1.11,0,0,1-.61-1.54A45.6,45.6,0,0,0,41.65,1a1.27,1.27,0,0,1,.52-.79A1.31,1.31,0,0,1,43.09,0a1.09,1.09,0,0,1,.79.51,1.11,1.11,0,0,1,.18.93l-.43,1.77a.22.22,0,0,0,.06.21.23.23,0,0,0,.19.11h8.79a1.14,1.14,0,0,1,.83.34,1.17,1.17,0,0,1,.32.81,1.15,1.15,0,0,1-.34.85,1.1,1.1,0,0,1-.81.34H48.78a.26.26,0,0,0-.29.29v7a.26.26,0,0,0,.29.29h4.39a1.15,1.15,0,0,1,.83.36,1.2,1.2,0,0,1,0,1.69,1.13,1.13,0,0,1-.85.36H48.64a.31.31,0,0,0-.33.25c-.05.53-.09.92-.14,1.19a.62.62,0,0,0,.07.54q3,4.5,5.65,8.93a1.32,1.32,0,0,1,.16,1,1.41,1.41,0,0,1-.59.85,1.23,1.23,0,0,1-1,.18,1.11,1.11,0,0,1-.78-.58c-1.37-2.35-2.79-4.7-4.28-7a.14.14,0,0,0-.13-.08.12.12,0,0,0-.12.08,20.15,20.15,0,0,1-6.34,9.57,1.12,1.12,0,0,1-1,.25A1.32,1.32,0,0,1,39,30.4a1.25,1.25,0,0,1-.25-1,1.33,1.33,0,0,1,.5-.9,18.31,18.31,0,0,0,6.37-12.42c0-.2-.08-.29-.25-.29ZM57.69,31a1.26,1.26,0,0,1-.92.38,1.28,1.28,0,0,1-.92-.38,1.25,1.25,0,0,1-.37-.92V4.77a1.93,1.93,0,0,1,.59-1.43,2,2,0,0,1,1.42-.59h9.69a2,2,0,0,1,2,2v25.3a1.29,1.29,0,0,1-.39.94,1.3,1.3,0,0,1-1.88,0,1.29,1.29,0,0,1-.39-.94v-.61a.26.26,0,0,0-.29-.29H58.36a.25.25,0,0,0-.29.29v.65A1.26,1.26,0,0,1,57.69,31Zm.38-25.54v21a.25.25,0,0,0,.29.29h7.88a.26.26,0,0,0,.29-.29v-21c0-.22-.1-.33-.29-.33H58.36C58.16,5.16,58.07,5.27,58.07,5.49Z"/><path class="cls-1" d="M83,20.82a1.5,1.5,0,0,1-.9-.61,1.2,1.2,0,0,1-.18-1c.72-3.34,1.32-6.54,1.8-9.62a1.34,1.34,0,0,1,2.38-.66,1.22,1.22,0,0,1,.25.95q-.58,3.67-1.62,8.28v.07h0l0,0a18.82,18.82,0,0,1,11.84-4.29,10.08,10.08,0,0,1,6.66,2,6.85,6.85,0,0,1,2.34,5.56A7.72,7.72,0,0,1,102.11,28q-3.51,2.46-9.7,2.47A41.61,41.61,0,0,1,85.79,30a1.13,1.13,0,0,1-.81-.52,1.33,1.33,0,0,1-.24-.95,1.16,1.16,0,0,1,.49-.81,1.18,1.18,0,0,1,.92-.24,38,38,0,0,0,6.33.51c3.32,0,5.86-.59,7.64-1.77a5.5,5.5,0,0,0,2.66-4.82q0-5-6.41-5-5.3,0-10.94,3.93A2.87,2.87,0,0,1,83,20.82ZM87.84,2.71a53.59,53.59,0,0,0,13,2.45,1.27,1.27,0,0,1,.86.42,1.22,1.22,0,0,1,.36.88,1.09,1.09,0,0,1-.36.81,1,1,0,0,1-.86.3A53.34,53.34,0,0,1,87.08,5a1.25,1.25,0,0,1-.72-.61,1.09,1.09,0,0,1,0-.9,1.05,1.05,0,0,1,.59-.68A1.23,1.23,0,0,1,87.84,2.71Z"/><path class="cls-1" d="M119,12.22a1.07,1.07,0,0,1-.81-.34,1.15,1.15,0,0,1-.35-.85,1.18,1.18,0,0,1,1.19-1.15c1.39,0,2.9,0,4.54-.11a.29.29,0,0,0,.32-.32l-.09-2.67c0-1.17,0-2,0-2.59a1.11,1.11,0,0,1,.36-1,1.32,1.32,0,0,1,1-.38,1.4,1.4,0,0,1,1,.38,1.36,1.36,0,0,1,.45,1c0,1.08.1,2.8.14,5.15a.26.26,0,0,0,.29.29q6.12-.3,11.88-.76c.19,0,.29-.11.29-.32,0-2.62,0-4.6,0-5.94a1.25,1.25,0,0,1,.41-.94,1.34,1.34,0,0,1,.95-.4,1.18,1.18,0,0,1,.9.4,1.37,1.37,0,0,1,.36.94V8.33c0,.17.1.25.29.25,1.35-.12,3-.29,5-.5a1.2,1.2,0,0,1,.85.25,1.13,1.13,0,0,1,.44.79,1.15,1.15,0,0,1-.26.85,1.27,1.27,0,0,1-.82.45c-2.06.21-3.77.38-5.14.5q-.33,0-.33.36c0,.1,0,.22,0,.36s0,.27,0,.36v5.08q0,4.07-3.35,4.07A24.26,24.26,0,0,1,132.41,20a1.14,1.14,0,0,1-.74-.61,1.35,1.35,0,0,1-.09-1,1.16,1.16,0,0,1,.59-.74,1.15,1.15,0,0,1,.92-.09,19.3,19.3,0,0,0,4.86,1,1.16,1.16,0,0,0,1-.39,3.25,3.25,0,0,0,.3-1.73l0-4.82V11.5a.26.26,0,0,0-.29-.29q-5.69.46-11.88.76c-.17,0-.25.12-.25.36q.1,5.22.1,9.9A14.57,14.57,0,0,0,127,24.6a4.32,4.32,0,0,0,.54,1.55,2.16,2.16,0,0,0,1.31,1,10.85,10.85,0,0,0,2.2.43,31.33,31.33,0,0,0,3.47.15,70,70,0,0,0,8.64-.58,1.19,1.19,0,0,1,.92.25,1.14,1.14,0,0,1,.45.83,1.2,1.2,0,0,1-.31.9,1.3,1.3,0,0,1-.84.47,75,75,0,0,1-9,.58c-4.2,0-7-.53-8.31-1.57s-2-3.16-2-6.35c0-3,0-6.25-.11-9.83,0-.19-.1-.29-.32-.29C122,12.18,120.46,12.22,119,12.22Z"/></g></g></svg>