<svg xmlns="http://www.w3.org/2000/svg" width="285" height="80" viewBox="0 0 285 80"><defs><style>.cls-1{fill:#48a5d4;}.cls-2{fill:#fff;}.cls-3{fill:#ffdb1d;}.cls-4{fill:#ffe81d;}.cls-5{fill:#f1b527;}</style></defs><g id="レイヤー_2" data-name="レイヤー 2"><g id="レイヤー_1-2" data-name="レイヤー 1"><path class="cls-1" d="M40,0H245a40,40,0,0,1,40,40h0a40,40,0,0,1-40,40H40A40,40,0,0,1,0,40H0A40,40,0,0,1,40,0Z"/><path class="cls-2" d="M66.08,63.51a37.09,37.09,0,0,1-6.14.46,22.7,22.7,0,0,1-3.86-.26c-2.42-.54-3.46-2.06-3.46-3.82a6.36,6.36,0,0,1,2-4.26l1.16.6A5.43,5.43,0,0,0,54,59.77c0,1.18.78,2.22,2.5,2.62a18.06,18.06,0,0,0,3.2.22A34.74,34.74,0,0,0,66,62.07Zm-9-10.08a23,23,0,0,1,3.54-2.32h0c-1.52.18-5,.24-7.22.24V50h1.08c2.56,0,7.8,0,10.32-.64l.2,1.44a7.65,7.65,0,0,0-2.1.6,20.94,20.94,0,0,0-4.62,2.8Zm9,2.84a13.29,13.29,0,0,0-2.68-2.72l.66-.62a14.6,14.6,0,0,1,2.74,2.7Zm2.1-1.9a14.28,14.28,0,0,0-2.68-2.7l.66-.64a14.7,14.7,0,0,1,2.74,2.72Z"/><path class="cls-2" d="M89.54,54.91h-11a18.11,18.11,0,0,1-1.88,2.56h4.06V55.41l1.7.1c0,.14-.12.24-.38.28v1.68h6v5.2c0,.72-.16,1.08-.74,1.28a11.67,11.67,0,0,1-3.12.22A5.1,5.1,0,0,0,83.66,63h1.62c1.18,0,1.32,0,1.32-.36v-4H82v6.84H80.68V58.69H76.46v5.64H75.14V59a17.75,17.75,0,0,1-3,2.24,7.75,7.75,0,0,0-.9-1,16.24,16.24,0,0,0,5.69-5.3H71.65V53.69h6a14.38,14.38,0,0,0,1.08-2.36c-1.8.5-3.62.92-5.39,1.26a6.12,6.12,0,0,0-.84-1.06,58.3,58.3,0,0,0,7.25-1.72c-2-.68-4-1.3-5.79-1.8l.93-.84c2.06.54,4.42,1.26,6.66,2a19.36,19.36,0,0,0,4.62-2.3l1.34.84a.42.42,0,0,1-.34.12.54.54,0,0,1-.18,0,21.34,21.34,0,0,1-3.78,2,50.82,50.82,0,0,1,4.9,2l-1,1a51.57,51.57,0,0,0-5.62-2.4c-.82.3-1.68.56-2.56.82l1.52.44a.42.42,0,0,1-.46.2,16.83,16.83,0,0,1-.82,1.78H89.54Z"/><path class="cls-2" d="M95.94,55.77c-1.56,0-2-.52-2-2V50.29H92.49V49.11h4.25V47l1.66.12c0,.14-.12.22-.38.26v1.78h4.06v1.18H95.22v3.48c0,.62.14.82.7.82H99.5a8.57,8.57,0,0,0,1.52-.1,10.06,10.06,0,0,0,.14,1.18,8.82,8.82,0,0,1-1.62.1Zm6.42,8.1h8.52V65H92.53V63.87H101V62H95.12V60.83H101V59H94.2V57.79h15.14V59h-7v1.88h6V62h-6Zm7.88-16.14v.42c-.22,5.56-.42,7.44-.92,8.06s-1,.56-1.82.56H106a2.85,2.85,0,0,0-.32-1.1c.9.08,1.68.08,2,.08s.72-.2.92-2h-4.88a6.37,6.37,0,0,1-2.38,3.46,5.26,5.26,0,0,0-.9-.8c2.22-1.5,2.78-4.58,2.82-8.72h6.28Zm-5.92,3.48c-.08.54-.18,1.06-.28,1.54h4.68l.12-1.54Zm4.62-2.48h-4.42c0,.52-.06,1-.1,1.5h4.46Z"/><path class="cls-2" d="M124,50.59a.51.51,0,0,1-.5.32c-.72,6.22-2.8,11.64-6.12,11.64-1.69,0-3.21-1.68-3.21-4.84a8.78,8.78,0,0,1,8.74-8.82h.26c5.78,0,8.28,3.66,8.28,7.56,0,4.76-2.76,7.06-7.6,8.18a7.78,7.78,0,0,0-.84-1.22c4.6-.88,7-3.12,7-6.9,0-3.3-2.12-6.3-6.8-6.3h-.6Zm-2-.26a7.37,7.37,0,0,0-6.55,7.34c0,2.14.93,3.48,1.89,3.48C119.8,61.15,121.54,55.81,122,50.33Z"/><path class="cls-2" d="M153,51.79H142.7c-.08,1.12-.18,2.3-.34,3.48h7.44l.8.14a3.1,3.1,0,0,1-.08.42c-.42,6-.82,8.26-1.62,9.06-.54.58-1.08.68-2.34.68-.72,0-1.72,0-2.72-.1a3.14,3.14,0,0,0-.48-1.32c1.48.14,2.92.14,3.42.14s.74,0,1-.22c.62-.56,1-2.58,1.38-7.48h-7c-.68,3.56-2.26,7-6.46,9a4,4,0,0,0-1-1.08c5.66-2.56,6.28-8,6.52-12.72h-6.35v-1.3h8.29v-3.6l1.78.12c0,.14-.14.24-.4.28v3.2H153Z"/><path class="cls-2" d="M157.69,64.41c-.62-1.44-.85-4.42-.85-7A51.4,51.4,0,0,1,157.92,48l1.94.38a.53.53,0,0,1-.52.36,38.55,38.55,0,0,0-1.16,8.62,25.12,25.12,0,0,0,.17,3.78c.45-1.2,1.25-3.12,1.67-4.06l.9.84c-.66,1.36-2.07,4.4-2.07,5.34a2.89,2.89,0,0,0,.21,1Zm5.09-11.78c1.68,0,3.36,0,5-.08-.08-1.72-.14-3.2-.18-4.68l2,.06c0,.2-.2.36-.52.42,0,1.28.06,2.58.1,4.1a18.07,18.07,0,0,0,3.92-.8l.18,1.4a19.41,19.41,0,0,1-4,.72c.08,2.22.18,4.56.24,5.84a14.86,14.86,0,0,1,4.08,2.54l-.78,1.28a12.25,12.25,0,0,0-3.24-2.28c0,1.7-.34,3.6-3.34,3.6-2.34,0-3.9-1.12-3.9-2.88,0-2,2.06-2.94,3.9-2.94a7.19,7.19,0,0,1,1.9.26c-.06-1.26-.18-3.36-.28-5.32-.62,0-1.46.06-2,.06h-3Zm5.48,7.86a6.79,6.79,0,0,0-2-.36c-1.22,0-2.68.44-2.68,1.7s1.2,1.68,2.66,1.68,2-.72,2-2.32Z"/><path class="cls-2" d="M192.76,63.47a36.37,36.37,0,0,1-6.08.46,22.4,22.4,0,0,1-3.92-.26c-2.42-.54-3.46-2.06-3.46-3.82a6.36,6.36,0,0,1,2-4.28l1.16.6a5.47,5.47,0,0,0-1.77,3.56c0,1.16.79,2.22,2.51,2.6a16.22,16.22,0,0,0,3.26.24,33.43,33.43,0,0,0,6.16-.54Zm-9-10.1a25.08,25.08,0,0,1,3.54-2.32h0c-1.52.18-5,.26-7.22.24v-1.4c.45,0,8.13.14,11.41-.64l.16,1.48c-2.38.28-5.44,2.36-6.72,3.38Z"/><path class="cls-2" d="M213.74,51a46.09,46.09,0,0,1-8.6,1.16,25.07,25.07,0,0,1-.94,5.3,10.14,10.14,0,0,1,5.68-2.12c3,0,4.8,1.6,4.8,4.3,0,4-4,5.32-10.52,5.48a6.09,6.09,0,0,0-.4-1.32c5.74-.12,9.46-1.1,9.46-4.12,0-1.8-1.2-3-3.52-3-1.78,0-4.84,1.08-6.16,3.06l-1.4-.66c.64-.72,1.3-3.58,1.6-6.86h-4.68v-1.4h4.8c.08-1.14.12-2.42.12-3.62l2.12.2c0,.34-.28.4-.64.44,0,1-.1,2-.18,3a38.5,38.5,0,0,0,8.2-1.22Z"/><path class="cls-2" d="M224.46,51.25a.56.56,0,0,1-.52.34,22.64,22.64,0,0,1-.82,5.9h0A13.61,13.61,0,0,1,230.5,55c3.08,0,5,1.58,5,4.38-.06,3.68-3.1,5.32-10.84,5.64a5.7,5.7,0,0,0-.5-1.32c7-.3,9.78-1.44,9.84-4.3,0-1.92-1.32-3.08-3.66-3.08-3.7,0-7,2.22-7.6,3.2l-1.36-.66c.39-.38,1.1-4,1.14-7.88Zm.34-3.88a31.76,31.76,0,0,1,7.76,1.76l-.5,1.38a32.3,32.3,0,0,0-7.68-1.82Z"/><path class="cls-3" d="M281.07,30.43s9.87-10.8-1.67-23.38L276.62,4.5c-13.56-10.37-23.44.43-23.44.43"/><path class="cls-4" d="M253.18,4.93l-1.39-1.28c-2.32-2.12-5.67,1.53-3.34,3.66l13.94,12.75,2.79,2.55,13.94,12.75c2.32,2.12,5.66-1.53,3.34-3.66l-1.39-1.27"/><circle class="cls-4" cx="278.12" cy="5.66" r="2.75"/><path class="cls-5" d="M257.45,8.48a.42.42,0,0,1-.26-.12.51.51,0,0,1-.06-.71c.2-.24,5-5.73,15.12-3.35a.51.51,0,0,1-.23,1c-9.48-2.23-13.93,2.81-14.11,3A.54.54,0,0,1,257.45,8.48Z"/><path class="cls-5" d="M277.65,27.25a.49.49,0,0,1-.3-.16.53.53,0,0,1,0-.72c.21-.19,5-4.87,2.37-14.23a.52.52,0,0,1,.35-.63.51.51,0,0,1,.63.35c2.84,10-2.43,15-2.65,15.25A.53.53,0,0,1,277.65,27.25Z"/><path class="cls-5" d="M266.45,16.83a.53.53,0,0,1-.31-.17.51.51,0,0,1,.05-.72h0l9.24-8a.51.51,0,0,1,.71,0h0a.51.51,0,0,1-.05.71l-9.24,8A.49.49,0,0,1,266.45,16.83Z"/><path class="cls-2" d="M107.24,23.85H96.78A29.7,29.7,0,0,0,107.92,33a8.54,8.54,0,0,0-1.42,1.64,32.51,32.51,0,0,1-11-9.61V36.41h-2V25.3a32.43,32.43,0,0,1-10.83,9.47,11.23,11.23,0,0,0-1.39-1.65,28.86,28.86,0,0,0,11-9.27H82V22H93.52V16.73H84.05V14.86h9.47V10.1l2.58.14c0,.2-.2.34-.6.4v4.22h9.78v1.87H95.5V22h11.74Z"/><path class="cls-2" d="M120.2,28.25c-.06.22-.29.31-.57.28a16.88,16.88,0,0,1-3,6.15,12.11,12.11,0,0,0-1.27-1.19A15.35,15.35,0,0,0,118,27.62ZM129.81,14v1.82H115.55V14h6.18V10l2.46.15c0,.22-.17.34-.54.39V14Zm-2,12.13H123.6v8.06c0,2.1-1,2.15-4.45,2.15a7.44,7.44,0,0,0-.63-1.78c1.36,0,2.41,0,2.78,0s.43-.14.43-.42v-8h-4.37v-7.9h10.46Zm-8.65-6.23V24.5H126V19.94Zm7.18,7.62a21,21,0,0,1,2.8,4.29l-1.61.82a24.83,24.83,0,0,0-2.69-4.4Zm9.78,5.79c0,1.19.2,1.36,1.1,1.36h1.39c1.53,0,1.62-.17,1.62-4.08a4.11,4.11,0,0,0,1.47.79c-.08,4-.28,4.88-3,4.88h-1.9a3.29,3.29,0,0,1-1.82-.49c-.51-.34-.68-.79-.68-2.72V24.28A21.9,21.9,0,0,1,128,36.47a6.57,6.57,0,0,0-1.64-1.11c5.05-4.59,6.38-10.63,6.72-15.79h-3.86V17.75h3.94c0-.65,0-1.3,0-1.89V10l2.44.15c0,.19-.2.34-.57.39v5.25c0,.62,0,1.27,0,1.92h6.63v1.82h-6.72c0,.51-.06,1-.11,1.5,1,.09,1.47.12,1.9.14,0,.2-.17.32-.57.37ZM137.86,11a16.93,16.93,0,0,1,3.51,4.71l-1.61.85a16.64,16.64,0,0,0-3.4-4.82Z"/><path class="cls-2" d="M150.67,11.35h23.9V36.41H172.7V35.16H152.49v1.25h-1.82Zm1.82,22H172.7V13.11H152.49Zm11.11-7.25a12.82,12.82,0,0,0,2.35,2.1,34.6,34.6,0,0,0,3.55-2.58l1.56,1a.74.74,0,0,1-.57.17c-.88.62-2.21,1.47-3.4,2.15a18.8,18.8,0,0,0,4.73,2,5.68,5.68,0,0,0-1.07,1.27A18.67,18.67,0,0,1,163,27.45v5.1h-1.73V28.1a31.26,31.26,0,0,1-6.66,3.35,14.25,14.25,0,0,0-1-1.19,25.28,25.28,0,0,0,7.79-4.11h-5V21.36h12.5v4.79Zm7.54-7.52v1.31H154V18.63h7.63v-1.9h-5.84V15.46h5.84V13.73l2.32.17c0,.17-.17.31-.54.37v1.19h6v1.27h-6v1.9ZM158,22.52V25h9.13V22.52Z"/><path class="cls-2" d="M194.05,27.05c0,.2-.25.34-.57.37-.76,4.4-2.35,7.49-9,9.1a6.39,6.39,0,0,0-1.11-1.67c6.19-1.3,7.66-3.91,8.2-8Zm-7.63-16.18,2.41.17c0,.19-.19.34-.56.36v15h-1.85Zm6.47.51h14.23V26H192.89Zm1.87,1.7v4.73h10.43V13.08Zm0,6.35v4.82h10.43V19.43Zm4.37,7.34,2.49.17c0,.2-.17.34-.54.4v6.18c0,.79.2.93,1.42.93h4.08c1.17,0,1.36-.53,1.48-4.22a4.65,4.65,0,0,0,1.75.79c-.22,4.23-.79,5.25-3.06,5.25H202.3c-2.49,0-3.17-.6-3.17-2.72Z"/></g></g></svg>