<svg xmlns="http://www.w3.org/2000/svg" width="184.71" height="155.46" viewBox="0 0 184.71 155.46"><defs><style>.cls-1{fill:#231815;}.cls-2{fill:#eac57b;}.cls-3{fill:none;}</style></defs><g id="レイヤー_2" data-name="レイヤー 2"><g id="レイヤー_1-2" data-name="レイヤー 1"><path class="cls-1" d="M97.14,144.09h0"/><path class="cls-2" d="M67.65,140.16a3.32,3.32,0,0,0-1.12-1.88c-.14-.57-.78-.75-1.07-1.26-.48,0-1.14-.07-1.45.45-.91,1-.27,2.36.13,3.42l.18.12c.15.51.91.36,1,.93.55.66,1.29-.16,1.84.19.33.15.2.62.48.77l.21-.42a4.34,4.34,0,0,0-.21-1.49c.18-.32-.21-.56,0-.83"/><path class="cls-2" d="M84,142.71a5.64,5.64,0,0,1-.51-.91,3.28,3.28,0,0,0-1.91-.94c-1.27-.29-3.4-.77-4.47.54.08.12.16.08,0,.08a2.16,2.16,0,0,0-.38,1.78c.08.42.57.61.79,1,.22.17.31.33.56.56a3.83,3.83,0,0,0,2.07.7,4.06,4.06,0,0,0,2.16-.64,2.68,2.68,0,0,0,1.5-1.11,1.26,1.26,0,0,0,.25-.48c0-.16-.16-.32-.09-.54"/><path class="cls-2" d="M55.84,134.19a3.29,3.29,0,0,0-1.62-1.39c-1.16-.58-3.1-1.58-4.46-.57.05.14.13.11,0,.08a2.11,2.11,0,0,0-.81,1.63c0,.43.4.74.52,1.13.18.22.23.4.41.67a3.79,3.79,0,0,0,1.83,1.2,4,4,0,0,0,2.25-.09,2.7,2.7,0,0,0,1.74-.71s.27-.17.35-.4-.07-.34,0-.54a5.32,5.32,0,0,1-.27-1"/><path class="cls-2" d="M184.71,23.09a23.09,23.09,0,1,0-46.17,0c0,.44,0,.87,0,1.3A98.77,98.77,0,0,0,92.36,13.23,98.78,98.78,0,0,0,46.14,24.39c0-.43,0-.86,0-1.3A23.09,23.09,0,1,0,20,46,62.31,62.31,0,0,0,6.47,84.34c0,39.28,38.45,71.12,85.89,71.12s85.89-31.84,85.89-71.12A62.26,62.26,0,0,0,164.68,46a23.09,23.09,0,0,0,20-22.88M84.12,53.66v-.82c1-1.53.64-3.69,2.58-4.69,1.82-.18,2.11-2.58,4-2.58.76-.71,1.46-.18,2.34,0,1.12,1.11,3.4.47,3.87,2.34,2.41,1.82.35,5,2.47,7,.11,2.82-2.23,4.81-1.18,7.86-1,1.35.59,2.64-.58,4,0,2.81.06,6-.94,8.44-.12,2.11-.76,4.05-.59,6.34-.82.93.94,1.7,0,2.69a4.66,4.66,0,0,0,.59,2.35,16.26,16.26,0,0,1-1.06,9.15c-.64,1-1.35,2.64-2.69,3.17-1.41-.53-3.17.11-4.46-.94-1.94-1.12-2.58-3.52-2.7-5.52-1.23-1.34-.64-3.51-.94-5,.3-2.29.94-4.1.12-6.22-.29-5.92,0-11-.24-16.65a26.85,26.85,0,0,0-.46-2.93c.7-2.06-.88-4.17,0-6.1-.06-.65-1-1.35-.12-1.88m8.24,51.1c6.35,0,11.49,3.18,11.49,7.09S98.71,119,92.36,119s-11.49-3.18-11.49-7.1,5.15-7.09,11.49-7.09m6.87,35.16ZM23.09,34.17A11.08,11.08,0,1,1,34.17,23.09,11.08,11.08,0,0,1,23.09,34.17m7.74,34.28c-.71-2.11-1.71-4.28-1.3-6.68l.47-.35c.36-1-1.29-2.12.12-2.94-.17-1.23,1.53-1.58.59-2.81.06-1.17,1.35-2.05,1.29-3.4,1.35-1.18,3-1.94,3.87-3.64a18.49,18.49,0,0,0,3.75-3.05c1.35-.82,3.11-.88,4.22-2.11a6.36,6.36,0,0,0,2.59-.35,4.09,4.09,0,0,0,3-.47c3-.65,5.39,1.23,7.85-.24,1.82.59,4.4-.23,6,.71,2.59.17,3.17,2.93,5.28,4.34.59.88.3,2.23,1.18,3.16.06.41-.71.59-.12.94.23,1.65-.24,3-.24,4.58-.7.7-.52,1.7-1.64,2-.29,1.35-1.87,1.58-2.7,2.7-1.7,1.29-3.69-.06-5.63.23-1-.64-2.46-.52-3.28-1.76-.12-1.11-1.35-1.87-1.88-2.69-.64-1.18-2.11-.65-3.05-1.29a46.49,46.49,0,0,0-5.74,1.52c-.18.82-1.12.76-1.76.94a5.6,5.6,0,0,0-.71,4.1c1.23,1.18,1.7,2.94,3.41,3.64,1,.94,2.52,2.17,3.75,3.29,1.29-.24,1.46,1.46,2.7,1.4,1,.82,2.87.41,3.51,1.88C57.8,74,60.74,74.49,62,76.66c1.11,2.41,4.51,3.58,4.22,6.57.35,1.82,1.11,4.17.35,6.22a5.92,5.92,0,0,1-2.82,3.28C60.15,95,56.22,96.9,51.7,96.6l-.58.24c-2.06-.35-4,.17-5.87-.47-1.82-.41-4.16-.18-5.63-2-.76-.46-1.52.18-2.23-.35.36-1.81-1.87-1.58-2-3.16,0-1.94-.06-4,1.64-5.17,1.35-1.4,3.11-3,5.4-2.34,1.11.94,2.69-1.23,3.4.7,3.11-.7,4.81,4.34,7.62,1.29.94-.41,1-1.58,1.29-2.46-.53-1.06-1.58-2.64-3-2.58-1.35-1.06-2.93-1.64-4.22-2.82C44.84,76,42,75.14,39.27,74a9.53,9.53,0,0,0-4.34-2c-1.52-1.11-3.11-1.88-4.1-3.52m5.86,60.75a4.54,4.54,0,0,0-.75.77c-.43.09-1,.59-1.39.11s-1-.74-.93-1.34c-.32-.25-.06-.64-.23-1,.36-.37,0-.91.42-1.26l.17-.67,1.15-1.64c-.13-.51.49-.54.6-1,.43-.27.25-.94.73-1.1.09-.35.15-.7.53-.82.24-.46.41-1,.91-1.29a.76.76,0,0,1,.41-.65c.72-1.27,1.49-2.5,2.33-3.73a2.81,2.81,0,0,1,2.69-1.29c.21.18.43,0,.65,0,.35.56,1.25.62,1.22,1.44.42.69-.26,1.36-.26,2.06-.18.4-.81.29-.8.84a4,4,0,0,0-.66.63c-.09.17.23.35,0,.5-.69-.36-.77.47-1.33.62-.08.75-.88.74-1.22,1.28l-.12,0c-.25.55-.78.81-1,1.31-.27,0-.07.29-.23.41,0,.31-.57.32-.46.72-.11.52-.73.32-.77.86a6.4,6.4,0,0,1-1.15,1.85c-.12.31,0,.71-.3.94a1.72,1.72,0,0,1-.14,1.37m7.81-1.95c-.4-.43-.9,0-1.34-.32a10.63,10.63,0,0,0-1.83.38c-.08.25-.37.18-.52.36-.37.37-.21.85-.37,1.25,0,.77.77,1.13.89,1.84a9.05,9.05,0,0,0,2,2.28c.13.35.68.71.31,1.05.1.41-.27.93-.52,1.25-.26-.18-.67.21-.8-.2-1-.07-1.16-1.16-2-1.58-.31-.51-.88-.71-1.05-1.32-1.06-.68-1.11-2.07-1.53-3.07a5.49,5.49,0,0,1,.26-2.58c.33-.76,1.16-1.12,1.62-1.84.67-.18,1.22-.44,1.81-.65a9.89,9.89,0,0,1,1.66-.13c1.07,0,2.27-.29,3.26.12a2.7,2.7,0,0,1,2.31.43c.21.44.75.71.62,1.33,0,.68-.44,1-.82,1.46-.54.24-1,.65-1.6.64-.32-.18-.75.09-1.05-.22-.48,0-.82-.58-1.33-.48m14.38,7c0-.06,0-.08-.13-.06s0,.11-.08,0c.2.08.13,0,0,.08,0,.22,0,.29.09.29a6.25,6.25,0,0,1-.3,2.2.68.68,0,0,1-.19.72c-.12.06.08.19-.21.37,0,.13-.18.11-.19.33a.08.08,0,0,1,0,0s0,0,0,.06,0,.21-.24,0c0,.22-.07.36-.35.46-.55.44-.7.74-1.07.79a4.89,4.89,0,0,1-.87.34,13.64,13.64,0,0,1-5-.22,5.92,5.92,0,0,1-1.17-.6c-.07-.05-.44-.52-.7-.82-.45-.39-.81-1.16-1.5-1.91a6.57,6.57,0,0,1-.83-1.68,11,11,0,0,1,.53-1.86,10.2,10.2,0,0,1,2.55-3.11.23.23,0,0,1,.13,0,3,3,0,0,1,1.39-.52,2.24,2.24,0,0,1,1.26-.13,9.79,9.79,0,0,1,4.76,2.41,3.48,3.48,0,0,0,.88.67,2.29,2.29,0,0,0,.51.61,2.77,2.77,0,0,1,.63,1.21s0,.07,0,.14c.18,0,.21,0,.15.18m14.64,4a4.56,4.56,0,0,0-.54,1.94,12.56,12.56,0,0,1-1,2.13c-.56.95-.77,2.4-1.91,2.88-.3.45-.45,1.22-1.25,1.26-.64-.33-1.5-.41-1.66-1.26-.38-.38.28-.88,0-1.15a4,4,0,0,1-1,.53,2.61,2.61,0,0,1-2,0,1.64,1.64,0,0,1-1.08-.27c-.16-.36-.55-.48-.82-.72a9,9,0,0,1-1.62-3.21c-.34-.29,0-.68-.22-1,.22-.33-.29-.5-.22-.86a2.85,2.85,0,0,0,.16-1.76c.43-.23.07-.91.59-1,0-.62.55-1,1-1.26.65.09,1-.48,1.6-.49a6.57,6.57,0,0,1,3.85.9c.27.44.83.59,1.22.87a2.14,2.14,0,0,0,1.68.63c.57-.3.29-.84.32-1.33.56-.66.42-1.48.52-2.22.15-.35-.38-.64,0-.94,0-.28-.19-.46-.21-.77a2,2,0,0,1,1.08-1.78c.42-.27.63-1.13,1.3-.78.41-.37.9,0,1.26.15s.22.38.5.37c.2.37-.11.83.31,1.12,0,1.6-.89,3.27-.86,4.82-.42.76-.48,1.56-.9,2.26.07.35-.41.55-.16.9m13.17,6.24c-.11.08.12.15-.11.41,0,.12-.16.15-.11.36v0s0,0,0,.06,0,.21-.24.07c.07.21,0,.37-.22.54-.42.56-.49.88-.85,1a5,5,0,0,1-.75.55,14,14,0,0,1-4.86,1,6,6,0,0,1-1.29-.3c-.07,0-.55-.39-.88-.61-.53-.28-1.07-.93-1.92-1.48a7.17,7.17,0,0,1-1.22-1.43,12.61,12.61,0,0,1,0-1.94A10.14,10.14,0,0,1,76,139.06a.19.19,0,0,1,.13,0,3.15,3.15,0,0,1,1.22-.85,2.21,2.21,0,0,1,1.19-.44,9.91,9.91,0,0,1,5.21,1.17,3.56,3.56,0,0,0,1,.43,2.41,2.41,0,0,0,.65.46c.36.3.85.71.91,1,0,0,.07.06,0,.15.17-.07.19-.09.19.13,0,0,0-.08-.15,0s.06.1-.06.07c.22,0,.14,0,0,.08,0,.22.11.27.16.26a6.36,6.36,0,0,1,.25,2.21.68.68,0,0,1,0,.75M107,147.26c-.24.54-1.63,1.11-2.07.37-.23,0-.21-.55-.31-.89a1.88,1.88,0,0,1,.09-1.59,3.4,3.4,0,0,1-.06-1.69c-.11-1-.56-2.24-1.62-2.34a.8.8,0,0,0-.89.15c-.07-.11-.48,0-.52-.15-.81.4-1.29,1.93-1.29,2.76-.08.31-.08.45-.21.49a4.58,4.58,0,0,0-.24,2.43c-.31.18-.1.83-.33,1.18s-.52.46-.75.45a1.26,1.26,0,0,1-1.26,0c.1-.18-.35-.3-.39-.4.29,0,.11-.21.15-.61-.07-.07-.09-.29-.34-.74.31.06.1-.4.27-.52-.29-.59.13-1,.09-1.38-.14-.22-.06-.46-.11-.63,0,0,0,0,0,0v-.05s-.08,0,0,0h0l0,0c-.26-1.36-.46-2.82-1.93-2.49a4.17,4.17,0,0,0-1.78,1.4c-.65,1.9-.11,3.75-1,5.35-.73,1.36-2.71,1.39-3.1.11A3.2,3.2,0,0,1,89,146a10.27,10.27,0,0,0,0-3.41,6.49,6.49,0,0,1,.48-1.72,9.16,9.16,0,0,1,.89-3.56c.15-.23.37-.25.47-.48a2.21,2.21,0,0,0,.68-.2c.49,0,.48.13.77.27a1.51,1.51,0,0,1,.77,1.07c.21.2-.22.68.12.91a6.58,6.58,0,0,1-.06.9c.09,0,.12,0,.11.06a.43.43,0,0,1,.24-.05c-.14-.31,0-.4.13-.39.19-.16.33-.23.29-.25.21-.13.54-.25.25-.36.53-.21.56-.25,1-.17.42-.2.69-.25.9.14.58.23,1.24.45,1.39.75s.63.44.59.81c.46-.1.58.37.66.29s0,0,0,0h0s.09,0,.07-.06a1.05,1.05,0,0,0,.64-.64,6.51,6.51,0,0,1,.7-.83,9.4,9.4,0,0,0,1.14-.75,3,3,0,0,1,1.5.17,2.4,2.4,0,0,1,1.3.63c.08-.09.24.18.89.2-.22.07.18.07.11.4.24.08.54.3.64.24a5.37,5.37,0,0,1,1.55,3.37c.06-.17,0,.24.26.18a7.93,7.93,0,0,1-.42,2.15,1.21,1.21,0,0,1-.06,1.63m14.93-6.11,0,0a.08.08,0,0,1,0,.07c-.06,0,.11.18-.2.15.14.17.15.33,0,.57-.21.68-.16,1-.45,1.26a4.23,4.23,0,0,1-.52.77,13.85,13.85,0,0,1-4.23,2.61,6.3,6.3,0,0,1-1.3.16c-.09,0-.65-.18-1-.28-.6-.07-1.32-.5-2.32-.73a7.09,7.09,0,0,1-1.63-.93,12.4,12.4,0,0,1-.61-1.84,10.22,10.22,0,0,1,.36-4,.21.21,0,0,1,.13-.05,3,3,0,0,1,.85-1.21,2.15,2.15,0,0,1,1-.82,9.77,9.77,0,0,1,5.29-.68,4.21,4.21,0,0,0,1.11.06,3,3,0,0,0,.76.21,2.62,2.62,0,0,1,1.21.65s.08,0,.06.12c.14-.12.15-.14.22.07,0,0-.07-.06-.14,0s.09.07,0,.08c.22,0,.13,0,0,.08.11.2.19.22.24.19.39.75,1,1.39,1,2,.23.09.31.51.25.7s.17.11,0,.43c.06.1-.1.19,0,.38M123,93c0-1.41-2.11-.18-1.75-1.76-.59-.35-1.53-.18-1.65-1-.23,0-.35-.12-.47-.24.47-1.23-1.4-1.47-1-2.58-.18-.29-.47-.23-.71-.23-.7-.77-.76-1.59-1.52-2.23.18-.71-.53-.77-.7-1.29.05-1.82-1.53-2.93-1.18-4.81.65-1.82-1.17-2.93-.7-4.81-1.29-1-.53-2.23-1.06-3.64.35-3.16-1.7-6.27-.94-9.38.12-1.29-.82-2.76-.11-4.11-.88-2,0-4.28.58-6a5.36,5.36,0,0,1,2.12-5.51c2,.23,2.4-3.34,4.57-1.41,1.7-.7,2.52,1.58,4,.47.35,1.53,2.52,1.17,2.46,2.82,1.29.88.88,2.63.82,4-1.58,1.47-.88,3.87-1.52,5.75a39.43,39.43,0,0,1-.71,5.16c1,.71.18,2.52.47,3.64-.7.94.35,2.46,0,3.52a5.33,5.33,0,0,0,.82,2.93c-.52,1,1,1.52.47,2.11-.11,1.53,1.94,1.58,1.88,3.17,1.17.29.94,1.7,2.23,1.76.7.64,2,.76,2.7,1.52a6,6,0,0,1,2.46,0c.82.24,1.29-1,2.35-.59.7-.35.41-1.11.82-1.52,1.29-1,1.93-2.46,2.93-3.64.41-.7-.06-1.81,1-2.11.24-2.46,1.82-4.51,1.65-7a15.19,15.19,0,0,1,.7-2.35c-.06-2.7.65-5.45.12-8.21-.76-.53-.12-1.35-.12-2-.88-1.82-1.47-4-3.28-5.17-.88-.76-.77-2.11-.59-3.16,1.41-2.7,4.1-2.7,6.92-2.7A11.8,11.8,0,0,1,154,50.39c.12,3.23,1.76,6.57.59,9.62a48.83,48.83,0,0,1-.47,11.61c-1.06,2.7-1.29,5.52-2,8.21a35.2,35.2,0,0,0-1.29,4.46c-.88-.23-.82.76-1.17,1.17-.47,1.29-1.47,2.06-1.88,3.4a1.54,1.54,0,0,0-.47,1.65c-.58.41-.88,1.29-1.76,1.29-1.46,1.11-2.52,2.28-4.22,2.81-.76.88-1.93.59-2.7,1.41-1.7,0-3.16,1.41-4.92.59a6.42,6.42,0,0,1-2.58.11c-.47-1.64-2-.35-2.82-1.64-1.46-.76-3.4-.53-4.45-1.88-.24-.29-.65,0-.83-.23m8.91,44c-.08.69-1,1.3-1.62,1.8-.54.31-1.21.72-1.7,1s-1,.5-1.5.74a3,3,0,0,1-1.27.44c-.19-.06-.3-.25-.43-.38a7.38,7.38,0,0,1-.9-.79c-.52-.62-1-1.31.08-1.88a27.81,27.81,0,0,1,3.06-1.37,13.85,13.85,0,0,1,1.58-.56,4.54,4.54,0,0,1,1.61-.37,1.13,1.13,0,0,1,.63.19c.19,0,.22.09.16.21a.79.79,0,0,1,.3,1m12-3.76a6.2,6.2,0,0,1-.76,1.38c-.83,1.27-2.23,1.58-3.51,2.44-.72,0-1.53.75-2.29.26a2.38,2.38,0,0,1-1.32-.05,2.08,2.08,0,0,1-1.13-1c-.7,0-.87-.81-1.2-1.21-.59-.42-.09-1.21-.53-1.72-.08-.52.25-1.05.08-1.56.32-.85.3-1.67.95-2.38-.06-.37.39-.39.5-.67,0-.66.81-.89.85-1.51.22-.53.87-.62,1.09-1.15.83-.07,1.13-.82,1.86-1,.47-.09.93.3,1.39.11.57.31.84.92,1.36,1.28.33.88.73,1.63.22,2.49.14.62-.47.82-.56,1.44-.5.74-1.21,1.29-1.67,2.08-.2.36-.84.31-.9.84-.37.27-.73.07-1.11.1a1.11,1.11,0,0,1-.6-1.1c.36-.81,1.46-1,2-1.7,0-.46.63-1.32-.24-1.46-.66.08-1,.77-1.46,1.16-.09.59-.73,1.07-.67,1.71a1.29,1.29,0,0,0,0,1.15,1.17,1.17,0,0,0,.05.44c.29,0,.38.26.58.4a4.48,4.48,0,0,0,1.82.49,4.11,4.11,0,0,0,2-1.07,2,2,0,0,0,.42-1.19c.05-.55-.77-.86-.14-1.33a1.31,1.31,0,0,1,.86-.5c.39.07,1,.11,1.08.61.48,0,.58.45.91.64.27.53.49,1.16.07,1.59M156,124.48c-.3-.15-.7.1-.92-.16-.57.17-.85-.59-1.45-.57a2.6,2.6,0,0,1-.86-.79c-.36-.15-.47-.44-.87-.51-.15-.56-1.07-.11-1-.75-.15-.16-.41-.09-.62-.12s-.62.25-.87.12c-.34.47-.85.86-.89,1.52-.52.23-.18.86-.64,1.13.28.34,0,.86.28,1.22-.09.58.7.86.71,1.44a1.7,1.7,0,0,1,.82,1.09c.34,0,.19.39.38.57-.32.43.32,1-.27,1.27,0,.21-.31.29-.46.46-.62-.36-1.22.6-1.64-.2-.26-.1-.39-.44-.67-.46a3.67,3.67,0,0,0-1.44-1.48l0-.19a8.18,8.18,0,0,1-1.2-1.66.77.77,0,0,1-.43-.64c-1-.76-1.13-1.82-1.84-2.72.08-.4-.14-.69-.22-1,0-1,.44-2.36,1.67-2.32.41.33,1.07.07,1.47.54.26.23.2.47.49.65,1.21-.3,1.93-1.38,3-1.93a3,3,0,0,1,3.11.38c.67.11,1,.78,1.58,1.1.19,0,.22.19.33.29s.23.2.39.24c.6,0,.85.48,1.38.56.52.51,1.19,1.16,1.12,2,.09.37-.24.67-.4,1M150.54,23.09a11.09,11.09,0,1,1,11.08,11.08,11.08,11.08,0,0,1-11.08-11.08"/><path class="cls-2" d="M118.72,139.6a5.47,5.47,0,0,1-.79-.68,3.28,3.28,0,0,0-2.12-.23c-1.28.16-3.45.43-4,2,.12.09.17,0,.06.07a2.12,2.12,0,0,0,.25,1.8c.22.37.74.38,1.06.63.28.09.41.21.72.33a3.8,3.8,0,0,0,2.19,0,4,4,0,0,0,1.81-1.34,2.65,2.65,0,0,0,1-1.56,1.12,1.12,0,0,0,.07-.53c-.06-.14-.25-.25-.27-.48"/><rect class="cls-3" width="184.71" height="155.46"/></g></g></svg>