<svg xmlns="http://www.w3.org/2000/svg" width="88.88" height="8.65" viewBox="0 0 88.88 8.65"><defs><style>.cls-1{fill:#f2cb7c;}</style></defs><g id="レイヤー_2" data-name="レイヤー 2"><g id="レイヤー_1-2" data-name="レイヤー 1"><path class="cls-1" d="M.32,2.42a.3.3,0,0,1-.22-.1A.28.28,0,0,1,0,2.1a.29.29,0,0,1,.09-.22.3.3,0,0,1,.23-.1h2.6a.29.29,0,0,1,.22.09.32.32,0,0,1,.09.23.31.31,0,0,1-.09.22.28.28,0,0,1-.22.1ZM.58,1.07A.29.29,0,0,1,.36,1,.29.29,0,0,1,.27.77.29.29,0,0,1,.36.55.29.29,0,0,1,.58.46H2.7a.29.29,0,0,1,.22.09A.3.3,0,0,1,3,.77.29.29,0,0,1,2.93,1a.32.32,0,0,1-.23.09ZM.27,8.32V6.37A.55.55,0,0,1,.43,6,.49.49,0,0,1,.8,5.83H2.5A.5.5,0,0,1,2.87,6,.54.54,0,0,1,3,6.37V7.71a.51.51,0,0,1-.15.37.5.5,0,0,1-.37.16H1s0,0,0,.06v0a.37.37,0,0,1-.1.24.36.36,0,0,1-.24.09.35.35,0,0,1-.23-.09A.37.37,0,0,1,.27,8.32ZM2.68,3.75H.63a.29.29,0,0,1-.21-.09.29.29,0,0,1-.09-.21.27.27,0,0,1,.09-.21.29.29,0,0,1,.21-.09H2.68a.26.26,0,0,1,.21.09A.27.27,0,0,1,3,3.45a.29.29,0,0,1-.09.21A.26.26,0,0,1,2.68,3.75ZM.63,5.09A.26.26,0,0,1,.42,5a.29.29,0,0,1,0-.42.26.26,0,0,1,.21-.09h2a.28.28,0,0,1,.22.09.29.29,0,0,1,0,.42.28.28,0,0,1-.22.09ZM.94,6.51v1c0,.05,0,.08.07.08H2.32a.07.07,0,0,0,.08-.08v-1a.07.07,0,0,0-.08-.08H1C1,6.43.94,6.46.94,6.51ZM3.49,8a.36.36,0,0,1-.25,0,.32.32,0,0,1-.17-.19.36.36,0,0,1,0-.25,11,11,0,0,0,.56-1.94.29.29,0,0,1,.14-.19.29.29,0,0,1,.24,0,.33.33,0,0,1,.21.14.29.29,0,0,1,0,.24A10.73,10.73,0,0,1,3.67,7.8.26.26,0,0,1,3.49,8Zm-.28-3.5A.37.37,0,0,1,3.36,4,4,4,0,0,0,4.87,2.53a.07.07,0,0,0,0-.11C4.58,2.28,4.29,2.14,4,2a.25.25,0,0,1-.14-.16.24.24,0,0,1,0-.22.3.3,0,0,1,.42-.14c.19.08.46.21.82.39,0,0,.09,0,.1,0a4.64,4.64,0,0,0,.17-.64c0-.05,0-.08-.07-.08H3.83A.31.31,0,0,1,3.52.79.29.29,0,0,1,3.61.57.29.29,0,0,1,3.83.48h4a.55.55,0,0,1,.38.15A.55.55,0,0,1,8.34,1a14.27,14.27,0,0,1-.15,2,2.48,2.48,0,0,1-.34,1,.69.69,0,0,1-.57.28,7.08,7.08,0,0,1-.77,0,.3.3,0,0,1-.22-.13.33.33,0,0,1-.1-.24.29.29,0,0,1,.09-.21.25.25,0,0,1,.22-.07A3.5,3.5,0,0,0,7,3.7c.37,0,.56-.84.59-2.52,0-.05,0-.08-.09-.08H6.19c-.06,0-.09,0-.1.1a5.42,5.42,0,0,1-.29,1s0,.08,0,.11l.76.51a.28.28,0,0,1,.13.2.29.29,0,0,1,0,.24.33.33,0,0,1-.21.13.29.29,0,0,1-.24-.06c-.39-.25-.61-.4-.67-.45s-.08,0-.12,0A4.69,4.69,0,0,1,3.68,4.62a.36.36,0,0,1-.27,0A.33.33,0,0,1,3.21,4.47Zm1.42.93a.4.4,0,0,1,.11-.27A.35.35,0,0,1,5,5a.33.33,0,0,1,.26.11.34.34,0,0,1,.12.26v2a1.18,1.18,0,0,0,0,.36s.08.06.2.06l.42,0,.41,0a.33.33,0,0,0,.29-.17,2.37,2.37,0,0,0,.13-.77.34.34,0,0,1,.36-.3.46.46,0,0,1,.23.12.3.3,0,0,1,.08.23,4.92,4.92,0,0,1-.13,1,.65.65,0,0,1-.23.39,1,1,0,0,1-.48.13,7.1,7.1,0,0,1-.72,0l-.71,0a.78.78,0,0,1-.52-.17,1.11,1.11,0,0,1-.11-.61Zm1.74.22a13,13,0,0,0-1.16-1,.28.28,0,0,1-.12-.2.31.31,0,0,1,.06-.22.3.3,0,0,1,.45-.06,12.82,12.82,0,0,1,1.2,1,.31.31,0,0,1,.09.22.32.32,0,0,1-.09.23.3.3,0,0,1-.21.1A.31.31,0,0,1,6.37,5.62Zm1.15-.3a.33.33,0,0,1,.26,0A.35.35,0,0,1,8,5.52c.26.63.48,1.27.68,1.93a.39.39,0,0,1,0,.26.32.32,0,0,1-.2.18.36.36,0,0,1-.25,0A.32.32,0,0,1,8,7.66C7.8,7,7.58,6.34,7.34,5.75a.34.34,0,0,1,0-.26A.29.29,0,0,1,7.52,5.32Z"/><path class="cls-1" d="M9.28,8.41a.28.28,0,0,1-.16-.19.32.32,0,0,1,0-.25,13,13,0,0,0,1.29-3.39.28.28,0,0,1,.15-.22.34.34,0,0,1,.26-.05.31.31,0,0,1,.22.14.34.34,0,0,1,0,.26c-.06.27-.13.53-.2.8a.17.17,0,0,0,0,.14,3.79,3.79,0,0,0,.83,1,3.54,3.54,0,0,0,1.15.64c.05,0,.07,0,.07-.05v-4a.07.07,0,0,0-.08-.08H10.77a.32.32,0,0,1-.23-.09.31.31,0,0,1-.09-.22.29.29,0,0,1,.09-.21.32.32,0,0,1,.23-.09h5a.29.29,0,0,1,.22.09.29.29,0,0,1,.09.21.31.31,0,0,1-.09.22.29.29,0,0,1-.22.09h-1.9c-.06,0-.09,0-.09.08V4.68c0,.05,0,.08.09.08h2.46a.29.29,0,0,1,.21.09.26.26,0,0,1,.09.21.32.32,0,0,1-.09.23.29.29,0,0,1-.21.09H13.82c-.06,0-.09,0-.09.08v2a.1.1,0,0,0,.08.1,17.12,17.12,0,0,0,3,.21h.28a.33.33,0,0,1,.23.09.27.27,0,0,1,.08.23.36.36,0,0,1-.11.23.32.32,0,0,1-.23.09h-.29A13.42,13.42,0,0,1,12.84,8a4.12,4.12,0,0,1-2.15-1.55s0,0,0,0l0,0a12,12,0,0,1-.85,1.85.32.32,0,0,1-.2.16A.39.39,0,0,1,9.28,8.41Zm7.77-5.48a.33.33,0,0,1-.25.1.34.34,0,0,1-.36-.36v-1c0-.06,0-.09-.08-.09H10.12s-.07,0-.07.09v1a.36.36,0,0,1-.11.26.33.33,0,0,1-.25.1.32.32,0,0,1-.25-.1.35.35,0,0,1-.1-.26V1.52a.54.54,0,0,1,.15-.38A.51.51,0,0,1,9.87,1h2.91c.06,0,.08,0,.08-.08V.38A.37.37,0,0,1,13,.11a.35.35,0,0,1,.26-.1.39.39,0,0,1,.27.1.4.4,0,0,1,.11.27V.9s0,.08.09.08h2.91a.49.49,0,0,1,.37.16.55.55,0,0,1,.16.38V2.67A.4.4,0,0,1,17.05,2.93Z"/><path class="cls-1" d="M22.25,8.1a5.18,5.18,0,0,1-2.6-.55,1.62,1.62,0,0,1-1-1.44,3.25,3.25,0,0,1,1.12-2A.3.3,0,0,1,20.05,4a.39.39,0,0,1,.26.09.28.28,0,0,1,.11.22.32.32,0,0,1-.09.23,2.65,2.65,0,0,0-.91,1.52,1.12,1.12,0,0,0,.76,1,4.69,4.69,0,0,0,2.07.38A11.71,11.71,0,0,0,25,7.11a.37.37,0,0,1,.25,0,.28.28,0,0,1,.15.2.4.4,0,0,1-.05.26.27.27,0,0,1-.2.16A13.18,13.18,0,0,1,22.25,8.1Zm-2.39-7H24.6a.32.32,0,0,1,.23.09.33.33,0,0,1,.1.23.3.3,0,0,1-.1.22.29.29,0,0,1-.23.1H19.86a.29.29,0,0,1-.23-.1.29.29,0,0,1-.09-.22.31.31,0,0,1,.32-.32Z"/><path class="cls-1" d="M31.23,8.26c-2.38,0-3.56-.69-3.56-2,0-.83.58-1.56,1.74-2.17.05,0,.06,0,0-.09a1.19,1.19,0,0,1-.08-.16c-.27-1.06-.47-2-.62-2.84A.36.36,0,0,1,28.8.67a.34.34,0,0,1,.25-.14.36.36,0,0,1,.27.06.38.38,0,0,1,.15.24c.15.86.36,1.79.62,2.8v0c0,.06,0,.07.08,0a23.49,23.49,0,0,1,3.48-1.06.28.28,0,0,1,.25.05.31.31,0,0,1,.16.21.33.33,0,0,1-.06.25.37.37,0,0,1-.21.16,16.76,16.76,0,0,0-4.11,1.37c-.84.46-1.26,1-1.26,1.54,0,.92.94,1.39,2.81,1.39a20.06,20.06,0,0,0,2.55-.18.3.3,0,0,1,.25.07.34.34,0,0,1,.13.22.33.33,0,0,1-.08.25.34.34,0,0,1-.22.12A20.89,20.89,0,0,1,31.23,8.26ZM32.42.4a.3.3,0,0,1,.44.13c.29.51.48.84.57,1a.27.27,0,0,1,0,.23.3.3,0,0,1-.16.17.29.29,0,0,1-.24,0,.3.3,0,0,1-.2-.15c-.16-.3-.34-.63-.55-1a.3.3,0,0,1,0-.24A.35.35,0,0,1,32.42.4ZM33.6.24a.3.3,0,0,1,.15-.2A.39.39,0,0,1,34,0a.32.32,0,0,1,.2.16c.17.28.36.62.58,1a.28.28,0,0,1,0,.24.3.3,0,0,1-.17.18.31.31,0,0,1-.25,0,.3.3,0,0,1-.19-.16l-.57-1A.26.26,0,0,1,33.6.24Z"/><path class="cls-1" d="M36.67,4.43a.29.29,0,0,1-.21-.09.27.27,0,0,1-.1-.22.32.32,0,0,1,.31-.32h1.82s.08,0,.08-.09,0-.63.08-1.45c0,0,0-.08-.07-.08H36.9a.28.28,0,0,1-.22-.1.3.3,0,0,1-.1-.22.31.31,0,0,1,.09-.22.33.33,0,0,1,.23-.09h1.72a.08.08,0,0,0,.09-.09c0-.26,0-.54,0-.82a.41.41,0,0,1,.13-.25A.31.31,0,0,1,39.15.3a.38.38,0,0,1,.25.11.28.28,0,0,1,.09.25q0,.68-.06.81a.07.07,0,0,0,.08.08h3.31a.29.29,0,0,1,.22.09.28.28,0,0,1,.1.22.3.3,0,0,1-.1.22.3.3,0,0,1-.22.1H39.46c-.06,0-.08,0-.08.08,0,.52-.07,1-.09,1.46a.07.07,0,0,0,.08.08h2.88a.31.31,0,0,1,.22.09.29.29,0,0,1,.1.23.33.33,0,0,1-.09.22.33.33,0,0,1-.23.09H39.34a.07.07,0,0,0-.08.08q0,1,0,1.29a2.24,2.24,0,0,0,.33,1.46A2.19,2.19,0,0,0,41,7.6c1.48,0,2.21-.51,2.21-1.53a2.73,2.73,0,0,0,0-.41.37.37,0,0,1,0-.27.34.34,0,0,1,.21-.16.34.34,0,0,1,.26,0,.29.29,0,0,1,.15.22,4.82,4.82,0,0,1,.05.62,1.88,1.88,0,0,1-.73,1.6A3.63,3.63,0,0,1,41,8.26a2.87,2.87,0,0,1-2-.51,2.71,2.71,0,0,1-.52-1.95q0-.51,0-1.29a.07.07,0,0,0-.08-.08Z"/><path class="cls-1" d="M45.69,8.55a.33.33,0,0,1-.25.1.34.34,0,0,1-.26-.1.37.37,0,0,1-.1-.26V.87a.54.54,0,0,1,.15-.38.54.54,0,0,1,.38-.15h7A.51.51,0,0,1,53,.49a.51.51,0,0,1,.16.38V8.29a.38.38,0,0,1-.11.26.33.33,0,0,1-.25.1.35.35,0,0,1-.26-.1.37.37,0,0,1-.1-.26.05.05,0,0,0-.06-.06H45.85a.05.05,0,0,0-.06.06A.37.37,0,0,1,45.69,8.55ZM45.79,1V7.57s0,.07.09.07h6.48c.06,0,.09,0,.09-.07V1c0-.05,0-.08-.09-.08H45.88C45.82.93,45.79,1,45.79,1Zm.67,2.19a.24.24,0,0,1-.18-.07A.25.25,0,0,1,46.2,3a.29.29,0,0,1,.08-.19.25.25,0,0,1,.18-.08h2.23c.05,0,.08,0,.08-.07V2.2a.07.07,0,0,0-.08-.08H46.86a.24.24,0,0,1-.25-.25.24.24,0,0,1,.07-.18.25.25,0,0,1,.18-.08h1.85a.05.05,0,0,0,.06-.06V1.49a.36.36,0,0,1,.11-.26.34.34,0,0,1,.25-.11.36.36,0,0,1,.26.11.35.35,0,0,1,.1.26v.06s0,.06.07.06H51.4a.25.25,0,0,1,.18.08.24.24,0,0,1,.07.18.24.24,0,0,1-.25.25H49.58c-.06,0-.09,0-.09.08v.41c0,.05,0,.07.09.07H51.8a.25.25,0,0,1,.18.08.29.29,0,0,1,.08.19.25.25,0,0,1-.08.18.24.24,0,0,1-.18.07Zm5.46,3.57A.27.27,0,0,1,52,7a.23.23,0,0,1-.06.2.33.33,0,0,1-.46.06A22.33,22.33,0,0,0,49.58,6.1c-.06,0-.08,0-.08,0v.79a.34.34,0,0,1-.1.26.36.36,0,0,1-.52,0,.35.35,0,0,1-.11-.26V6.22a.08.08,0,0,0,0,0s0,0,0,0a14.44,14.44,0,0,1-2.05,1,.31.31,0,0,1-.42-.15.3.3,0,0,1,0-.23.24.24,0,0,1,.16-.15,11,11,0,0,0,2.47-1.27,0,0,0,0,0,0,0H47.43a.55.55,0,0,1-.38-.16.49.49,0,0,1-.16-.37V4.1a.47.47,0,0,1,.16-.37.51.51,0,0,1,.38-.16h3.4a.51.51,0,0,1,.38.16.47.47,0,0,1,.16.37v.75a.49.49,0,0,1-.16.37.55.55,0,0,1-.38.16h-1a.2.2,0,0,0-.14.06h0l0,0s0,.07,0,.09l.83.42c.06,0,.11,0,.14,0a8.61,8.61,0,0,0,.85-.66.26.26,0,0,1,.41,0,.28.28,0,0,1,.08.2.21.21,0,0,1-.1.18,7.93,7.93,0,0,1-.69.55.06.06,0,0,0,0,.05s0,0,0,0Zm-4.25-1.9H50.6s.07,0,.07-.08V4.16c0-.06,0-.09-.07-.09H47.67c-.05,0-.08,0-.08.09v.63C47.59,4.85,47.62,4.87,47.67,4.87Z"/><path class="cls-1" d="M55.34,8.19a.46.46,0,0,1-.28-.06.4.4,0,0,1-.16-.24,15.22,15.22,0,0,1-.39-3.51A15.07,15.07,0,0,1,54.9.88a.4.4,0,0,1,.16-.24.41.41,0,0,1,.28-.07.31.31,0,0,1,.22.14.28.28,0,0,1,0,.25,14.4,14.4,0,0,0-.37,3.42,14.4,14.4,0,0,0,.37,3.42.33.33,0,0,1-.27.39Zm4.3-.39a3.85,3.85,0,0,1-2-.47,1.45,1.45,0,0,1-.76-1.27,1.76,1.76,0,0,1,.26-.82,3.91,3.91,0,0,1,.7-.88.43.43,0,0,1,.25-.1.41.41,0,0,1,.26.09.29.29,0,0,1,.09.22.32.32,0,0,1-.09.23,2,2,0,0,0-.75,1.26.86.86,0,0,0,.54.8,3.36,3.36,0,0,0,1.54.28,7.71,7.71,0,0,0,1.75-.2.29.29,0,0,1,.24,0,.3.3,0,0,1,.13.21.36.36,0,0,1,0,.25.3.3,0,0,1-.2.14A8.65,8.65,0,0,1,59.64,7.8Zm1.62-6.42a.33.33,0,0,1,.23.09.32.32,0,0,1,.09.23.29.29,0,0,1-.09.22.3.3,0,0,1-.23.1H57.89a.3.3,0,0,1-.23-.1.3.3,0,0,1-.1-.22.33.33,0,0,1,.1-.23.33.33,0,0,1,.23-.09Z"/><path class="cls-1" d="M63.73,2.63a.29.29,0,0,1-.26,0,.36.36,0,0,1-.16-.22.32.32,0,0,1,0-.27.4.4,0,0,1,.22-.17,17.51,17.51,0,0,1,3.86-.63c2.38,0,3.56,1,3.56,3a2.93,2.93,0,0,1-1.42,2.62,8.33,8.33,0,0,1-4.25,1,.33.33,0,0,1-.25-.1A.39.39,0,0,1,65,7.53.38.38,0,0,1,65,7.28a.33.33,0,0,1,.24-.1q4.93-.09,4.94-2.83a2.13,2.13,0,0,0-.7-1.76A3.35,3.35,0,0,0,67.37,2,16.59,16.59,0,0,0,63.73,2.63Z"/><path class="cls-1" d="M74.42,8.1c-.49,0-.94-.36-1.36-1.06a5,5,0,0,1-.62-2.56,12.39,12.39,0,0,1,.33-2.9.39.39,0,0,1,.17-.23.42.42,0,0,1,.27-.06.31.31,0,0,1,.23.14.33.33,0,0,1,0,.26,12.5,12.5,0,0,0-.32,2.79,4.42,4.42,0,0,0,.43,2.06c.29.56.59.84.88.84s.43-.18.72-.53A5.68,5.68,0,0,0,76,5.37a.36.36,0,0,1,.2-.2.36.36,0,0,1,.27,0,.39.39,0,0,1,.19.19.32.32,0,0,1,0,.27,5.59,5.59,0,0,1-1.09,1.82A1.73,1.73,0,0,1,74.42,8.1Zm4.79-1.34a12.67,12.67,0,0,0-1.1-5,.3.3,0,0,1,0-.26.28.28,0,0,1,.18-.17.39.39,0,0,1,.28,0,.37.37,0,0,1,.2.19,12.67,12.67,0,0,1,1.17,5.25.35.35,0,0,1-.11.26.33.33,0,0,1-.25.1.35.35,0,0,1-.26-.1A.35.35,0,0,1,79.21,6.76Z"/><path class="cls-1" d="M81.53,1.89a.3.3,0,0,1-.22-.1.32.32,0,0,1-.1-.23.33.33,0,0,1,.1-.24.33.33,0,0,1,.23-.09q3.28,0,7-.18a.27.27,0,0,1,.23.09.38.38,0,0,1,.11.23.36.36,0,0,1-.09.24.46.46,0,0,1-.23.12,6.88,6.88,0,0,0-3.41,1.15A2.7,2.7,0,0,0,84,5.07a2.14,2.14,0,0,0,.73,1.72,2.86,2.86,0,0,0,2,.64,6.38,6.38,0,0,0,.84-.06.4.4,0,0,1,.26.06.29.29,0,0,1,.13.22.35.35,0,0,1-.08.26.34.34,0,0,1-.23.13,7.46,7.46,0,0,1-.95.06,3.71,3.71,0,0,1-2.5-.8,2.69,2.69,0,0,1-.92-2.16,3,3,0,0,1,.72-2A4.94,4.94,0,0,1,86,1.8s0,0,0,0,0,0,0,0C84.47,1.84,83,1.87,81.53,1.89Z"/></g></g></svg>