<svg xmlns="http://www.w3.org/2000/svg" width="75" height="17" viewBox="0 0 74.45 16.04"><defs><style>.cls-1{fill:#f2cb7c;}</style></defs><title>レイヤー 20</title><g id="レイヤー_2" data-name="レイヤー 2"><g id="レイヤー_1-2" data-name="レイヤー 1"><g id="レイヤー_2-2" data-name="レイヤー 2"><g id="レイヤー_1-2-2" data-name="レイヤー 1-2"><path class="cls-1" d="M4,15.43a4,4,0,0,1-2.8-1.07A3.24,3.24,0,0,1,0,11.88,3.75,3.75,0,0,1,1.29,9.12,7.26,7.26,0,0,1,4.93,7.34a.18.18,0,0,0,.16-.18h0v-3c0-.1,0-.15-.16-.15H1.22a.6.6,0,0,1-.4-.17.56.56,0,0,1-.17-.4A.53.53,0,0,1,.82,3a.56.56,0,0,1,.4-.17H4.93c.11,0,.16,0,.16-.14V1.08a.61.61,0,0,1,.2-.46A.59.59,0,0,1,5.76.43a.58.58,0,0,1,.46.19.64.64,0,0,1,.19.46V2.74c0,.09,0,.14.16.14h3.89a.56.56,0,0,1,.4.17.52.52,0,0,1,.17.41.56.56,0,0,1-.17.4.6.6,0,0,1-.4.17H6.57c-.11,0-.16,0-.16.15V7a.13.13,0,0,0,.12.14h0A10.84,10.84,0,0,1,8,7a7.05,7.05,0,0,1,4.32,1.2A3.44,3.44,0,0,1,14,11c0,2.59-1.5,4.12-4.48,4.59A.63.63,0,0,1,9,15.52a.62.62,0,0,1-.27-.4.48.48,0,0,1,.09-.43.53.53,0,0,1,.39-.24c2.26-.37,3.39-1.49,3.39-3.34a2.41,2.41,0,0,0-1.24-2A5.83,5.83,0,0,0,8,8.28a10.48,10.48,0,0,0-1.48.07c-.09,0-.14.06-.14.18V13a2.64,2.64,0,0,1-.56,1.91A2.63,2.63,0,0,1,4,15.43ZM5,8.62A5.85,5.85,0,0,0,2.3,9.94a2.61,2.61,0,0,0-.94,1.94,2.24,2.24,0,0,0,.8,1.64,2.47,2.47,0,0,0,1.72.74,1.34,1.34,0,0,0,1-.3,1.5,1.5,0,0,0,.28-1V8.75C5.09,8.64,5.05,8.6,5,8.62Zm8.14-6a23.69,23.69,0,0,1,2.19,2.8.59.59,0,0,1,.1.47.61.61,0,0,1-.71.47.61.61,0,0,1-.38-.25A26.07,26.07,0,0,0,12.2,3.35.55.55,0,0,1,12,3a.5.5,0,0,1,.21-.39.67.67,0,0,1,.45-.14.54.54,0,0,1,.43.17Z"/><path class="cls-1" d="M19.87,8.08a.61.61,0,0,1-.61-.61h0A.6.6,0,0,1,19.44,7a.52.52,0,0,1,.43-.19h3.06c.11,0,.16,0,.16-.14V3.17A.14.14,0,0,0,23,3H21.78a.17.17,0,0,0-.2.14,17.75,17.75,0,0,1-1,2.59.58.58,0,0,1-.37.33.6.6,0,0,1-.49,0,.53.53,0,0,1-.32-.32.61.61,0,0,1,0-.46A23.68,23.68,0,0,0,21,.52a.56.56,0,0,1,.27-.39A.59.59,0,0,1,21.73,0a.54.54,0,0,1,.39.25.55.55,0,0,1,.09.47c0,.09-.06.24-.1.45s-.07.36-.1.47,0,.14.11.14H26.6A.54.54,0,0,1,27,2a.57.57,0,0,1,.18.43.62.62,0,0,1-.6.6h-2c-.09,0-.14,0-.14.16V6.7a.13.13,0,0,0,.12.14h2.26a.52.52,0,0,1,.43.19.59.59,0,0,1,.18.44.6.6,0,0,1-.18.43.62.62,0,0,1-.43.18H24.55a.14.14,0,0,0-.16.11v0c0,.19-.05.39-.09.59a.3.3,0,0,0,.05.27q1.53,2.31,2.88,4.57a.66.66,0,0,1,.08.53.66.66,0,0,1-.77.52h0a.61.61,0,0,1-.39-.29c-.66-1.13-1.4-2.33-2.2-3.6a.06.06,0,0,0-.06,0,.09.09,0,0,0-.07,0,10.3,10.3,0,0,1-3.24,4.88.58.58,0,0,1-.49.12.72.72,0,0,1-.46-.28A.67.67,0,0,1,19.5,15a.72.72,0,0,1,.26-.45A9.31,9.31,0,0,0,23,8.21c0-.09,0-.13-.12-.13Zm9.3,7.75a.66.66,0,0,1-.93,0,.63.63,0,0,1-.2-.46V2.43a1,1,0,0,1,.31-.71.94.94,0,0,1,.72-.3h5a1,1,0,0,1,.71.3,1,1,0,0,1,.3.71V15.35a.73.73,0,0,1-.19.48.71.71,0,0,1-1,0h0a.63.63,0,0,1-.2-.48V15a.13.13,0,0,0-.11-.15h-4c-.11,0-.16.05-.16.15v.34A.68.68,0,0,1,29.17,15.83Zm.19-13V13.54c0,.09.05.14.16.14h4c.1,0,.15,0,.15-.14V2.79c0-.1,0-.14-.15-.14h-4c-.11,0-.16,0-.16.14Z"/><path class="cls-1" d="M41.49,10.28a.73.73,0,0,1-.39-.3A.75.75,0,0,1,41,9.5c.2-1.11.42-2.58.69-4.41A.63.63,0,0,1,42,4.63a.67.67,0,0,1,.51-.13.54.54,0,0,1,.45.24.68.68,0,0,1,.13.5c-.22,1.53-.4,2.73-.54,3.58h0a10.67,10.67,0,0,1,6-2.11q5,0,5,4a4,4,0,0,1-2,3.61,11.13,11.13,0,0,1-5.83,1.25,23.25,23.25,0,0,1-3.1-.15.58.58,0,0,1-.42-.22.66.66,0,0,1-.15-.46.56.56,0,0,1,.21-.42.65.65,0,0,1,.44-.14q1.8.18,3,.18c4.18,0,6.26-1.22,6.26-3.65q0-2.85-3.69-2.83a8.19,8.19,0,0,0-2.85.58A12.24,12.24,0,0,0,42.61,10,1.37,1.37,0,0,1,41.49,10.28Zm2.27-8.82a62.53,62.53,0,0,0,6.84.47.57.57,0,0,1,.4.18.56.56,0,0,1,0,.8l0,0a.67.67,0,0,1-.44.18,58.5,58.5,0,0,1-7-.47.53.53,0,0,1-.4-.22A.65.65,0,0,1,43.07,2a.54.54,0,0,1,.23-.4A.55.55,0,0,1,43.76,1.46Z"/><path class="cls-1" d="M59.72,5.62a.62.62,0,0,1-.41-.18A.55.55,0,0,1,59.13,5a.57.57,0,0,1,.18-.43.54.54,0,0,1,.41-.18h2.16c.1,0,.15-.05.15-.16V1.62a.57.57,0,0,1,.2-.46A.6.6,0,0,1,62.69,1a.59.59,0,0,1,.47.19.61.61,0,0,1,.2.46V4.23a.15.15,0,0,0,.12.16h0c2.22,0,4.46-.09,6.72-.16a.14.14,0,0,0,.16-.12v-3a.64.64,0,0,1,.19-.46.61.61,0,0,1,.46-.18.59.59,0,0,1,.45.18.64.64,0,0,1,.19.46V4a.14.14,0,0,0,.11.15h0l2-.07a.43.43,0,0,1,.41.15.6.6,0,0,1,.2.42.56.56,0,0,1-.15.42.65.65,0,0,1-.42.19l-2.09.09c-.1,0-.15.06-.15.17V8.44a3.6,3.6,0,0,1-.33,1.88,1.63,1.63,0,0,1-1.34.46,12.34,12.34,0,0,1-3.24-.59.65.65,0,0,1-.38-.31.67.67,0,0,1,0-.5A.63.63,0,0,1,67.11,9h0a11.43,11.43,0,0,0,2.65.53c.31,0,.49-.06.55-.18a4.23,4.23,0,0,0,.08-1.12V5.58a.14.14,0,0,0-.12-.16h0q-3.39.11-6.72.16a.13.13,0,0,0-.16.11v5.6a6.62,6.62,0,0,0,.1,1.33,2.56,2.56,0,0,0,.34.88,1.49,1.49,0,0,0,.77.56,5.71,5.71,0,0,0,1.23.25c.47,0,1.1.07,1.88.07a35.48,35.48,0,0,0,4.37-.27.59.59,0,0,1,.46.12.49.49,0,0,1,.23.4.63.63,0,0,1-.13.47.58.58,0,0,1-.41.24,34.17,34.17,0,0,1-4.52.27,14.52,14.52,0,0,1-2-.08,7.65,7.65,0,0,1-1.49-.27,3.33,3.33,0,0,1-1-.49,2.52,2.52,0,0,1-.65-.8,3.59,3.59,0,0,1-.35-1.14A11.56,11.56,0,0,1,62,11.29V5.76c0-.11,0-.16-.15-.16H59.72Z"/></g></g></g></g></svg>