<svg xmlns="http://www.w3.org/2000/svg" width="96" height="17" viewBox="0 0 95.89 16.56"><defs><style>.cls-1{fill:#323333;}</style></defs><title>アセット 5</title><g id="レイヤー_2" data-name="レイヤー 2"><g id="レイヤー_1-2" data-name="レイヤー 1"><path class="cls-1" d="M3.15,3.71A.12.12,0,0,0,3,3.85c0,.52,0,1.2,0,2C3,6,3,6,3.13,6H5.29A1,1,0,0,1,6,6.32a.92.92,0,0,1,.3.7q0,4.13-.21,6.08a7,7,0,0,1-.5,2.47,1.08,1.08,0,0,1-1,.5c-.17,0-.64,0-1.4-.1a.79.79,0,0,1-.46-.24.65.65,0,0,1-.19-.48.5.5,0,0,1,.2-.42.49.49,0,0,1,.43-.12,7.72,7.72,0,0,0,.88.07.56.56,0,0,0,.52-.39,7.87,7.87,0,0,0,.3-2Q5,10.72,5,7.42a.15.15,0,0,0-.17-.17H3.08c-.11,0-.16,0-.16.15a32.65,32.65,0,0,1-.55,4.93,14.05,14.05,0,0,1-1.18,3.44.56.56,0,0,1-.39.28.53.53,0,0,1-.46-.14.86.86,0,0,1-.2-1.1,14.43,14.43,0,0,0,1.14-4.07,52.9,52.9,0,0,0,.38-6.87c0-.11-.06-.16-.17-.16H.63a.62.62,0,0,1-.44-.18A.57.57,0,0,1,0,3.1a.58.58,0,0,1,.19-.44.62.62,0,0,1,.44-.18H2.48c.11,0,.17,0,.17-.16V.77A.65.65,0,0,1,2.84.29a.7.7,0,0,1,.49-.2.72.72,0,0,1,.5.2A.66.66,0,0,1,4,.77V2.32c0,.11,0,.16.15.16H6.23a.58.58,0,0,1,.43.18.6.6,0,0,1,.18.44.6.6,0,0,1-.18.43.58.58,0,0,1-.43.18Zm12.92,8.53a.71.71,0,0,1,.46.28.73.73,0,0,1,.16.51c-.05.53-.1,1-.16,1.26a2.51,2.51,0,0,1-.3.86,1.9,1.9,0,0,1-.46.55A2.41,2.41,0,0,1,15,16a6.67,6.67,0,0,1-1.16.14l-1.69,0-1.65,0c-.4,0-.78,0-1.12-.08a3.22,3.22,0,0,1-.74-.15.86.86,0,0,1-.4-.28,1,1,0,0,1-.2-.43,4.6,4.6,0,0,1,0-.61V8.86c0-.1,0-.14-.15-.11l-.48.14a.51.51,0,0,1-.45-.06.55.55,0,0,1-.24-.37A.71.71,0,0,1,6.74,8a.67.67,0,0,1,.37-.29l.7-.19A.19.19,0,0,0,8,7.31V4.81a0,0,0,0,0,0,0s0,0-.06,0a8.55,8.55,0,0,1-.56.72.73.73,0,0,1-.48.27.76.76,0,0,1-.53-.13A.51.51,0,0,1,6,5.24a.57.57,0,0,1,.14-.47A16.09,16.09,0,0,0,8.71.52.74.74,0,0,1,9.07.14.72.72,0,0,1,9.59.09a.61.61,0,0,1,.38.3.5.5,0,0,1,0,.46c0,.08-.09.21-.16.38s-.13.31-.17.39,0,.14.09.14h6.16a.58.58,0,0,1,.43.18.58.58,0,0,1,.18.42.61.61,0,0,1-.18.42.56.56,0,0,1-.43.19H9.18A.23.23,0,0,0,9,3.1a13.45,13.45,0,0,1-.8,1.29c-.06.09,0,.13.06.13h0a1,1,0,0,1,1,1V7c0,.09.05.13.15.1l1.67-.46c.11,0,.16-.09.16-.18V4.27a.63.63,0,0,1,.18-.46.58.58,0,0,1,.45-.19.65.65,0,0,1,.65.65v1.8c0,.09.05.13.16.1l2.49-.68a.72.72,0,0,1,.68.13.75.75,0,0,1,.31.63c0,1.71-.07,3-.16,3.79a4,4,0,0,1-.35,1.54.79.79,0,0,1-.7.32l-1.1,0a.68.68,0,0,1-.44-.19.65.65,0,0,1-.21-.42.5.5,0,0,1,.12-.41.46.46,0,0,1,.39-.15l.61,0c.12,0,.21-.08.27-.23a4.55,4.55,0,0,0,.15-1.05c0-.55.07-1.38.07-2.48,0-.11-.05-.15-.15-.13l-2,.56a.17.17,0,0,0-.16.18V12.4a.62.62,0,0,1-.19.46.6.6,0,0,1-.46.19.58.58,0,0,1-.45-.19.65.65,0,0,1-.18-.46V7.94c0-.1-.05-.13-.16-.11L9.4,8.3a.18.18,0,0,0-.15.2v5.65c0,.31.06.51.18.59a8.08,8.08,0,0,0,2.52.2H13.2a5.6,5.6,0,0,0,.65,0,2.66,2.66,0,0,0,.52-.07,1.44,1.44,0,0,0,.35-.16.55.55,0,0,0,.27-.25,4.15,4.15,0,0,0,.15-.39,2.4,2.4,0,0,0,.12-.53c0-.18.05-.42.08-.72a.59.59,0,0,1,.25-.43A.55.55,0,0,1,16.07,12.24Z"/><path class="cls-1" d="M20.83,4.68a.58.58,0,0,1-.42-.18.58.58,0,0,1-.18-.43.57.57,0,0,1,.17-.42.58.58,0,0,1,.43-.18h5.52a.58.58,0,0,1,.42.18.54.54,0,0,1,.18.42.58.58,0,0,1-.18.43.58.58,0,0,1-.42.18ZM21.33,1h4.52a.57.57,0,0,1,.41.18.54.54,0,0,1,.18.42.56.56,0,0,1-.17.4.54.54,0,0,1-.42.17H21.33A.54.54,0,0,1,20.91,2a.52.52,0,0,1-.17-.4.54.54,0,0,1,.17-.42A.54.54,0,0,1,21.33,1ZM26.46,12.2v2.56a1,1,0,0,1-1,1H22.16a.1.1,0,0,0-.11.11h0a.64.64,0,0,1-.19.47.63.63,0,0,1-.46.2.67.67,0,0,1-.47-.2.64.64,0,0,1-.19-.47V12.2a1,1,0,0,1,1-1h3.69a1,1,0,0,1,.71.3A1,1,0,0,1,26.46,12.2Zm-5-5A.57.57,0,0,1,21,7.05a.62.62,0,0,1-.16-.41A.55.55,0,0,1,21,6.25a.57.57,0,0,1,.42-.17h4.35a.57.57,0,0,1,.42.17.51.51,0,0,1,.16.39.56.56,0,0,1-.58.58Zm0,2.55A.54.54,0,0,1,21,9.6a.59.59,0,0,1-.16-.4A.62.62,0,0,1,21,8.79a.57.57,0,0,1,.42-.17h4.35a.56.56,0,0,1,.58.58.55.55,0,0,1-.16.4.54.54,0,0,1-.42.17Zm3.76,4.7v-2a.13.13,0,0,0-.14-.14H22.21c-.11,0-.16.05-.16.14v2a.14.14,0,0,0,.16.16h2.85C25.15,14.63,25.2,14.58,25.2,14.47Zm11-10.85a.55.55,0,0,1,.41.22.66.66,0,0,1,.15.46c0,.46-.07.81-.11,1.07a2.55,2.55,0,0,1-.2.71,1.26,1.26,0,0,1-.29.46,1.26,1.26,0,0,1-.52.24,3.12,3.12,0,0,1-.72.1H33.84a2.11,2.11,0,0,1-1-.16c-.15-.11-.22-.35-.22-.74V2.18c0-.1,0-.15-.14-.15H30.19a.13.13,0,0,0-.15.15v.25A5.23,5.23,0,0,1,28,7a.62.62,0,0,1-.49.11.82.82,0,0,1-.44-.27A.52.52,0,0,1,27,6.41a.62.62,0,0,1,.24-.4A3.3,3.3,0,0,0,28.4,4.47a7.45,7.45,0,0,0,.35-2.56v0a1,1,0,0,1,.3-.72,1,1,0,0,1,.72-.31h3.12a1,1,0,0,1,.72.31,1,1,0,0,1,.3.72V5.4c0,.17,0,.26.06.29a1.25,1.25,0,0,0,.39,0c.49,0,.8-.07.91-.2a3.44,3.44,0,0,0,.26-1.36.63.63,0,0,1,.23-.41A.57.57,0,0,1,36.18,3.62ZM27.41,14.81a14.23,14.23,0,0,0,3.21-1.71c.08-.07.09-.14,0-.21a14.66,14.66,0,0,1-2.16-2.31.59.59,0,0,1-.12-.48.62.62,0,0,1,.26-.42.69.69,0,0,1,.92.18,13,13,0,0,0,2.1,2.2.18.18,0,0,0,.24,0,10.54,10.54,0,0,0,2.16-3c.05-.09,0-.14-.09-.14h-6.1a.58.58,0,0,1-.43-.18.59.59,0,0,1,0-.83.58.58,0,0,1,.43-.18H35a.62.62,0,0,1,.6.59,2.71,2.71,0,0,1-.26,1.14,12,12,0,0,1-2.39,3.4.11.11,0,0,0,0,.2A20.1,20.1,0,0,0,36,14.81a.7.7,0,0,1,.34.36.55.55,0,0,1,0,.47A.6.6,0,0,1,36,16a.54.54,0,0,1-.48,0,18.74,18.74,0,0,1-3.62-2.05c-.07-.06-.15,0-.25,0A16.76,16.76,0,0,1,28,16a.61.61,0,0,1-.51,0,.64.64,0,0,1-.39-.35.58.58,0,0,1,0-.48A.6.6,0,0,1,27.41,14.81Z"/><path class="cls-1" d="M48.68,9.4a.89.89,0,0,1-.67.28.91.91,0,0,1-.68-.28.89.89,0,0,1-.28-.67V8.12a.91.91,0,0,1,.28-.68A1,1,0,0,1,48,7.16a.93.93,0,0,1,.67.28.91.91,0,0,1,.28.68v.61A.89.89,0,0,1,48.68,9.4Z"/><path class="cls-1" d="M60.12,2.52a.58.58,0,0,1-.44-.19.59.59,0,0,1-.19-.44.58.58,0,0,1,.19-.44.58.58,0,0,1,.44-.19h3.46a.61.61,0,0,1,.44.19.61.61,0,0,1,.19.44.63.63,0,0,1-.19.44.61.61,0,0,1-.44.19h-.69c-.11,0-.16,0-.16.14V6.5a.14.14,0,0,0,.16.16h.58a.61.61,0,0,1,0,1.22h-.58c-.11,0-.16.06-.16.17v4.19c0,.1.05.13.14.11.58-.19,1-.34,1.3-.45a.43.43,0,0,1,.41,0,.47.47,0,0,1,.2.36.73.73,0,0,1-.5.8c-1.36.5-2.72.93-4.09,1.29a.5.5,0,0,1-.44-.06.51.51,0,0,1-.24-.39.65.65,0,0,1,.12-.48.77.77,0,0,1,.42-.29l.57-.16.58-.15a.18.18,0,0,0,.16-.2V8.05c0-.11,0-.17-.16-.17h-.94a.6.6,0,0,1-.43-.18.6.6,0,0,1,0-.86.6.6,0,0,1,.43-.18h.94a.14.14,0,0,0,.16-.16V2.66c0-.09,0-.14-.16-.14Zm3.29,12.24a15.27,15.27,0,0,0,5-3.46.05.05,0,0,0,0-.08.07.07,0,0,0-.06,0H66.19a1,1,0,0,1-.72-.3.93.93,0,0,1-.31-.71V8.48a.92.92,0,0,1,.31-.71,1,1,0,0,1,.72-.3h7.86a1,1,0,0,1,.71.3.94.94,0,0,1,.3.71v1.69a1,1,0,0,1-1,1h-3.2a.05.05,0,0,0-.06,0,.06.06,0,0,0,0,.08,13.52,13.52,0,0,0,1.82,1.62.2.2,0,0,0,.24,0c.62-.48,1.08-.85,1.36-1.1a.74.74,0,0,1,1-.07.46.46,0,0,1,.22.38.49.49,0,0,1-.16.41q-.42.36-1.35,1.08-.14.12,0,.18,1,.59,1.83,1a.52.52,0,0,1,.31.34.54.54,0,0,1,0,.45.62.62,0,0,1-.38.31.7.7,0,0,1-.51-.06,17.3,17.3,0,0,1-4.6-3.27c-.06-.06-.09-.05-.09,0v3.24a.69.69,0,0,1-.21.5.71.71,0,0,1-1,0,.68.68,0,0,1-.2-.5V12.42s0,0,0-.05-.05,0-.06,0A17,17,0,0,1,64,15.84a.6.6,0,0,1-.49,0,.69.69,0,0,1-.39-.31.57.57,0,0,1,0-.46A.55.55,0,0,1,63.41,14.76Zm1.35-8.14a.55.55,0,0,1-.55-.55.54.54,0,0,1,.16-.4.53.53,0,0,1,.39-.16H75.35a.51.51,0,0,1,.39.16.54.54,0,0,1,.17.4.54.54,0,0,1-.17.39.51.51,0,0,1-.39.16ZM65.7.74h8.71a1,1,0,0,1,.71.3,1,1,0,0,1,.3.72V3.65a1,1,0,0,1-.3.72.93.93,0,0,1-.71.31H65.7A.93.93,0,0,1,65,4.37a1,1,0,0,1-.3-.72V1.76A1,1,0,0,1,65,1,1,1,0,0,1,65.7.74Zm2.21,2.77V2c0-.11,0-.16-.14-.16H66.08c-.1,0-.15.05-.15.16V3.51c0,.1,0,.14.15.14h1.69C67.87,3.65,67.91,3.61,67.91,3.51Zm-1.24,6.62h6.86a.14.14,0,0,0,.16-.16V8.69c0-.09,0-.14-.16-.14H66.67c-.11,0-.16,0-.16.14V10A.14.14,0,0,0,66.67,10.13ZM71,3.51V2c0-.11,0-.16-.15-.16H69.19c-.09,0-.14.05-.14.16V3.51a.12.12,0,0,0,.14.14h1.69C71,3.65,71,3.61,71,3.51Zm3.13,0V2A.14.14,0,0,0,74,1.82H72.32a.14.14,0,0,0-.16.16V3.51c0,.1.06.14.16.14H74C74.11,3.65,74.16,3.61,74.16,3.51Z"/><path class="cls-1" d="M79.74,6.66a.55.55,0,0,1-.41-.18.57.57,0,0,1,0-.83.55.55,0,0,1,.41-.18H81c.09,0,.14,0,.14-.16V1.39a.63.63,0,0,1,.2-.48.65.65,0,0,1,.48-.19.62.62,0,0,1,.48.19.62.62,0,0,1,.19.48V5.31a.14.14,0,0,0,.16.16h1.32l.14,0a0,0,0,0,0,.06,0,.08.08,0,0,0,0-.08V5.29a.55.55,0,0,1,.16-.39.54.54,0,0,1,.4-.17h2.5c.1,0,.12,0,.07-.14C87,4,86.71,3.44,86.42,2.9v0l0,0a.2.2,0,0,0-.2-.14H85a.56.56,0,0,1-.4-.17.53.53,0,0,1-.17-.41.52.52,0,0,1,.17-.4.52.52,0,0,1,.4-.17h4.2c.09,0,.14-.05.14-.15V.7a.65.65,0,0,1,.21-.49.71.71,0,0,1,1,0,.66.66,0,0,1,.21.5v.7a.13.13,0,0,0,.15.15H95a.51.51,0,0,1,.4.17.55.55,0,0,1,.16.4.56.56,0,0,1-.16.41.54.54,0,0,1-.4.17h-1a.16.16,0,0,0-.16.14.24.24,0,0,1,0,.08c-.22.52-.48,1.08-.79,1.67,0,0,0,0,0,.09a.07.07,0,0,0,.08.05h2.18a.58.58,0,0,1,.56.56.54.54,0,0,1-.17.4.51.51,0,0,1-.39.16H84.58a.07.07,0,0,0-.09.09.61.61,0,0,1,0,.15.62.62,0,0,1-.59.59H82.6a.14.14,0,0,0-.16.16v5.55c0,.1,0,.13.14.09.7-.32,1.23-.56,1.59-.74a.42.42,0,0,1,.38,0,.34.34,0,0,1,.21.3.8.8,0,0,1-.45.87,31.84,31.84,0,0,1-4.43,2,.55.55,0,0,1-.45,0,.53.53,0,0,1-.25-.38.83.83,0,0,1,.1-.51.65.65,0,0,1,.39-.3c.29-.1.72-.25,1.29-.47a.21.21,0,0,0,.13-.22V6.82c0-.11,0-.16-.14-.16Zm13.37,9.63a5.12,5.12,0,0,1-1.92-.21c-.25-.14-.38-.48-.38-1V12.2c0-.09,0-.14-.16-.14H89a.18.18,0,0,0-.18.14q-.54,2.94-4.8,4.18a.79.79,0,0,1-.55-.05.85.85,0,0,1-.41-.36.54.54,0,0,1,0-.45.52.52,0,0,1,.34-.29c2.34-.63,3.71-1.63,4.12-3,0-.09,0-.14-.11-.14H86.15a1.06,1.06,0,0,1-1-1V7.58a.92.92,0,0,1,.31-.71,1,1,0,0,1,.72-.3H94a1,1,0,0,1,.72.3.92.92,0,0,1,.31.71V11a1.06,1.06,0,0,1-1,1H92.27c-.1,0-.15,0-.15.14v2.34c0,.28,0,.44.14.48a3.94,3.94,0,0,0,1,.06l.74,0a.65.65,0,0,0,.38-.24,1,1,0,0,0,.21-.57c0-.25,0-.64.08-1.18a.59.59,0,0,1,.19-.42.61.61,0,0,1,.44-.14.75.75,0,0,1,.43.22.59.59,0,0,1,.16.46c0,.54,0,1-.07,1.26a4.42,4.42,0,0,1-.16.85,2,2,0,0,1-.26.56,1.09,1.09,0,0,1-.5.28,3,3,0,0,1-.71.13Zm-6.6-8.57v.9c0,.1,0,.15.16.15h6.8a.13.13,0,0,0,.15-.15v-.9c0-.11-.05-.16-.15-.16h-6.8A.14.14,0,0,0,86.51,7.72Zm.16,3.3h6.8a.13.13,0,0,0,.15-.15v-1a.14.14,0,0,0-.15-.16h-6.8a.14.14,0,0,0-.16.16v1C86.51,11,86.56,11,86.67,11ZM92.43,2.7H87.88c-.11,0-.14,0-.09.14.32.62.61,1.2.86,1.75a.21.21,0,0,0,.22.14H91.4a.29.29,0,0,0,.24-.12,14.59,14.59,0,0,0,.88-1.77C92.57,2.75,92.54,2.7,92.43,2.7Z"/></g></g></svg>