<svg xmlns="http://www.w3.org/2000/svg" width="95" height="16" viewBox="0 0 95 16.24"><defs><style>.cls-1{fill:#323333;}</style></defs><title>アセット 4</title><g id="レイヤー_2" data-name="レイヤー 2"><g id="レイヤー_1-2" data-name="レイヤー 1"><path class="cls-1" d="M1.17,16a.64.64,0,0,1-.49.21A.63.63,0,0,1,.2,16a.7.7,0,0,1-.2-.5V1.4A1,1,0,0,1,.3.69,1,1,0,0,1,1,.4H14.4a1,1,0,0,1,.71.29,1,1,0,0,1,.3.71V15.53a.7.7,0,0,1-.2.5.67.67,0,0,1-1,0,.7.7,0,0,1-.2-.5c0-.07,0-.1-.11-.1H1.48c-.08,0-.11,0-.11.1A.7.7,0,0,1,1.17,16Zm.2-14.36v12.5c0,.09,0,.14.16.14H13.88c.11,0,.16-.05.16-.14V1.67c0-.09,0-.14-.16-.14H1.53C1.42,1.53,1.37,1.58,1.37,1.67ZM2.63,5.85a.48.48,0,0,1-.34-.14.47.47,0,0,1-.15-.35A.5.5,0,0,1,2.29,5a.45.45,0,0,1,.34-.15H6.88c.1,0,.16-.05.16-.14V3.94C7,3.85,7,3.8,6.88,3.8H3.4a.46.46,0,0,1-.34-.15.44.44,0,0,1-.14-.34.48.48,0,0,1,.48-.48H6.91A.12.12,0,0,0,7,2.7V2.59a.66.66,0,0,1,.2-.49.63.63,0,0,1,.48-.21.65.65,0,0,1,.49.21.7.7,0,0,1,.2.49V2.7c0,.08,0,.13.12.13H12a.44.44,0,0,1,.34.14.46.46,0,0,1,.15.34.45.45,0,0,1-.15.34A.45.45,0,0,1,12,3.8H8.57c-.11,0-.16.05-.16.14v.78c0,.09.05.14.16.14H12.8a.49.49,0,0,1,.35.15.5.5,0,0,1,.15.35.47.47,0,0,1-.15.35.52.52,0,0,1-.35.14ZM13,12.65a.49.49,0,0,1,.23.35.45.45,0,0,1-.12.37.6.6,0,0,1-.86.11c-1.1-.69-2.33-1.4-3.71-2.1-.1-.05-.15,0-.15.07V13a.71.71,0,0,1-.19.5.7.7,0,0,1-.49.2.68.68,0,0,1-.49-.2A.69.69,0,0,1,7,13V11.59a.1.1,0,0,0,0-.08s0,0-.08,0A25.56,25.56,0,0,1,3,13.5a.59.59,0,0,1-.81-.29.47.47,0,0,1,0-.42.46.46,0,0,1,.29-.3,20.6,20.6,0,0,0,4.7-2.41s0,0,0-.06a.05.05,0,0,0,0,0H4.48a1,1,0,0,1-.72-.3A.94.94,0,0,1,3.46,9V7.56a1,1,0,0,1,.3-.71,1,1,0,0,1,.72-.3H11a1,1,0,0,1,.72.3.93.93,0,0,1,.31.71V9a.92.92,0,0,1-.31.71A1,1,0,0,1,11,10H9.09a.35.35,0,0,0-.27.13h0l0,0c-.07.07-.07.13,0,.18.36.17.88.43,1.58.79q.18.07.27,0,.75-.53,1.62-1.26a.5.5,0,0,1,.77,0,.56.56,0,0,1,.15.39.41.41,0,0,1-.18.35c-.41.34-.85.69-1.32,1,0,0,0,0,0,.08a.08.08,0,0,0,0,.08ZM4.93,9h5.58c.1,0,.15-.06.15-.17V7.67c0-.11-.05-.16-.15-.16H4.93c-.09,0-.14,0-.14.16v1.2C4.79,9,4.84,9,4.93,9Z"/><path class="cls-1" d="M20.47,3.35A.58.58,0,0,1,20,3.16a.62.62,0,0,1-.18-.44A.61.61,0,0,1,20,2.28a.61.61,0,0,1,.44-.19q6.9,0,13.32-.34a.53.53,0,0,1,.45.17.67.67,0,0,1,.2.44.59.59,0,0,1-.16.46.74.74,0,0,1-.45.22A12.94,12.94,0,0,0,27.35,5.3a5.31,5.31,0,0,0-2.24,4.31A4.3,4.3,0,0,0,26.5,13a5.33,5.33,0,0,0,3.7,1.25,13.2,13.2,0,0,0,1.61-.11.59.59,0,0,1,.48.12.55.55,0,0,1,.25.42.59.59,0,0,1-.13.48.68.68,0,0,1-.44.26,15.73,15.73,0,0,1-1.82.1A7,7,0,0,1,25.4,14a5.36,5.36,0,0,1-1.77-4.24A6,6,0,0,1,25,5.85a9,9,0,0,1,4-2.66s0,0,0,0,0,0,0,0Q24.61,3.31,20.47,3.35ZM31,5.69a.59.59,0,0,1,.85.23C32.59,7.17,33,7.81,33,7.85a.52.52,0,0,1,0,.44.56.56,0,0,1-.29.33.59.59,0,0,1-.45,0,.61.61,0,0,1-.36-.29c-.17-.31-.53-.94-1.08-1.87A.57.57,0,0,1,31,5.69Zm3.4-.45c.33.54.7,1.19,1.12,1.94a.53.53,0,0,1,0,.46.54.54,0,0,1-.31.35.67.67,0,0,1-.48,0,.68.68,0,0,1-.37-.32c-.26-.48-.62-1.1-1.08-1.87A.57.57,0,0,1,33.57,5a.7.7,0,0,1,.49-.06A.55.55,0,0,1,34.43,5.24Z"/><path class="cls-1" d="M43.16,14.53A3,3,0,0,1,40.78,13a6.5,6.5,0,0,1-1.09-3.83A7.13,7.13,0,0,1,42,3.62a8.54,8.54,0,0,1,6-2.13A6.87,6.87,0,0,1,53,3.36a6.24,6.24,0,0,1,2,4.74,7.61,7.61,0,0,1-1.33,4.61,5.57,5.57,0,0,1-3.66,2.21.58.58,0,0,1-.49-.11.73.73,0,0,1-.28-.45.52.52,0,0,1,.1-.45.68.68,0,0,1,.42-.27,4.54,4.54,0,0,0,2.89-1.84,6.22,6.22,0,0,0,1-3.7,5.1,5.1,0,0,0-1.46-3.73,5.46,5.46,0,0,0-3.77-1.6c-.09,0-.14.06-.17.16-.2,1.85-.45,3.47-.74,4.86a23.72,23.72,0,0,1-.92,3.35,8.66,8.66,0,0,1-1.06,2,3.54,3.54,0,0,1-1.14,1.06A2.63,2.63,0,0,1,43.16,14.53ZM46.69,2.86a6.63,6.63,0,0,0-4.14,2.06A6,6,0,0,0,41,9.13,5.5,5.5,0,0,0,41.72,12c.48.79,1,1.18,1.44,1.18a1.15,1.15,0,0,0,.67-.23A3,3,0,0,0,44.6,12a8.56,8.56,0,0,0,.81-1.78,23,23,0,0,0,.77-3c.26-1.25.48-2.68.66-4.3C46.84,2.88,46.79,2.84,46.69,2.86Z"/><path class="cls-1" d="M59.69,8A.68.68,0,0,1,59.4,7a28.59,28.59,0,0,0,2.23-6,.73.73,0,0,1,.31-.45.74.74,0,0,1,1,.18.52.52,0,0,1,.1.48l-.41,1.55c0,.1,0,.14.1.14h3.8c.11,0,.16,0,.16-.14V.72a.69.69,0,0,1,.21-.5.71.71,0,0,1,1,0,.72.72,0,0,1,.2.5V2.79c0,.1.06.14.17.14h5.31a.61.61,0,0,1,.43.19.64.64,0,0,1,.18.44A.6.6,0,0,1,74,4a.6.6,0,0,1-.43.18H68.26c-.11,0-.17,0-.17.14V8c0,.09.06.14.17.14h4.42a.58.58,0,0,1,.43.18.6.6,0,0,1,0,.85.58.58,0,0,1-.42.18H68.26c-.11,0-.17,0-.17.14v4.64a.15.15,0,0,0,.17.17h6a.61.61,0,0,1,0,1.22H60a.6.6,0,0,1-.44-.18.6.6,0,0,1,0-.86.6.6,0,0,1,.44-.18h6.51c.11,0,.16-.06.16-.17V9.45c0-.1-.05-.14-.16-.14H62.24a.57.57,0,0,1-.41-.18.6.6,0,0,1,0-.85.56.56,0,0,1,.42-.18h4.25c.11,0,.16,0,.16-.14V4.32c0-.1-.05-.14-.16-.14H62.3a.21.21,0,0,0-.22.14A27.39,27.39,0,0,1,60.62,7.7a.65.65,0,0,1-.4.34A.66.66,0,0,1,59.69,8Z"/><path class="cls-1" d="M79,5.58a.63.63,0,0,1-.23-.41.56.56,0,0,1,.12-.45.72.72,0,0,1,.44-.24.63.63,0,0,1,.48.13c.9.69,1.66,1.32,2.29,1.89a.59.59,0,0,1,.2.45.64.64,0,0,1-.17.47.62.62,0,0,1-.44.21.55.55,0,0,1-.44-.16Q80.08,6.42,79,5.58Zm3.49,4.27a.59.59,0,0,1,.37.34.62.62,0,0,1,0,.5,21.73,21.73,0,0,1-2.3,4.66.6.6,0,0,1-.44.29.64.64,0,0,1-.52-.11.58.58,0,0,1-.28-.41.72.72,0,0,1,.1-.5,23,23,0,0,0,2.23-4.4A.66.66,0,0,1,82,9.86.59.59,0,0,1,82.49,9.85ZM80.64.65c.83.66,1.49,1.2,2,1.64a.69.69,0,0,1,.22.46.62.62,0,0,1-.17.47.57.57,0,0,1-.43.22.56.56,0,0,1-.45-.16c-.56-.52-1.22-1.07-2-1.66a.58.58,0,0,1-.22-.41.56.56,0,0,1,.13-.45.72.72,0,0,1,.44-.24A.59.59,0,0,1,80.64.65Zm3.44,5.6a.58.58,0,0,1-.42-.18.6.6,0,0,1-.18-.44.62.62,0,0,1,.6-.59H88.4c.11,0,.16,0,.16-.14V2.81c0-.09,0-.13-.16-.13-1.19.12-2.34.19-3.46.2a.62.62,0,0,1-.44-.18.7.7,0,0,1-.21-.43.56.56,0,0,1,.17-.44.56.56,0,0,1,.43-.19A33.69,33.69,0,0,0,93.47.47a.71.71,0,0,1,.5,0,.59.59,0,0,1,.3.37.65.65,0,0,1-.07.49.63.63,0,0,1-.38.3,29.94,29.94,0,0,1-3.68.8.15.15,0,0,0-.14.16V4.9a.13.13,0,0,0,.14.14h4.27a.55.55,0,0,1,.41.18.57.57,0,0,1,.18.41.6.6,0,0,1-.18.44.55.55,0,0,1-.41.18H90.14a.12.12,0,0,0-.14.14V8.57c0,.11,0,.16.14.16H93a1.06,1.06,0,0,1,1,1V15.3a.71.71,0,0,1-1.19.49.7.7,0,0,1-.2-.49v-.14c0-.09,0-.13-.12-.13H86c-.09,0-.13,0-.13.13v.16a.62.62,0,0,1-.2.47.65.65,0,0,1-.48.19.63.63,0,0,1-.48-.19.61.61,0,0,1-.19-.47V9.76a1,1,0,0,1,.3-.72.92.92,0,0,1,.71-.31H88.4a.14.14,0,0,0,.16-.16V6.39c0-.1,0-.14-.16-.14ZM92.5,9.86H86c-.09,0-.14.06-.14.17v3.7c0,.11,0,.17.14.17h6.5c.11,0,.16-.06.16-.17V10C92.66,9.92,92.61,9.86,92.5,9.86Z"/></g></g></svg>