<svg xmlns="http://www.w3.org/2000/svg" width="55" height="15" viewBox="0 0 54.73 14.94"><defs><style>.cls-1{fill:#fff;}</style></defs><title>アセット 2</title><g id="レイヤー_2" data-name="レイヤー 2"><g id="レイヤー_1-2" data-name="レイヤー 1"><path class="cls-1" d="M.38,12.71A.62.62,0,0,1,0,12.32a.5.5,0,0,1,0-.49C1,10.1,1.82,8.47,2.5,7a.71.71,0,0,1,.4-.38.77.77,0,0,1,.54,0,.59.59,0,0,1,.37.35.72.72,0,0,1,0,.52q-1.11,2.46-2.47,5a.65.65,0,0,1-.4.34A.75.75,0,0,1,.38,12.71Zm5.76.95c.4,0,.65-.05.73-.15A1.71,1.71,0,0,0,7,12.62V4c0-.1,0-.15-.14-.15h-6A.61.61,0,0,1,.4,3.66a.61.61,0,0,1-.19-.44A.63.63,0,0,1,.4,2.78a.65.65,0,0,1,.45-.19h6c.09,0,.14,0,.14-.16V.72A.67.67,0,0,1,7.22.21a.7.7,0,0,1,1,0,.67.67,0,0,1,.22.51V2.43a.14.14,0,0,0,.16.16h5.64a.65.65,0,0,1,.44.19.63.63,0,0,1,.19.44.61.61,0,0,1-.19.44.61.61,0,0,1-.44.19H8.6A.14.14,0,0,0,8.44,4v8.78a2.84,2.84,0,0,1-.36,1.77,2.41,2.41,0,0,1-1.67.39,21,21,0,0,1-2.22-.14.58.58,0,0,1-.43-.24.63.63,0,0,1-.13-.48.62.62,0,0,1,.71-.54A13.61,13.61,0,0,0,6.14,13.66Zm6.44-6.8c.88,1.7,1.69,3.39,2.45,5.07a.72.72,0,0,1,0,.54.63.63,0,0,1-.37.38.72.72,0,0,1-.54,0,.71.71,0,0,1-.4-.38Q12.68,10.1,11.32,7.4a.67.67,0,0,1,.86-.9A.82.82,0,0,1,12.58,6.86Z"/><path class="cls-1" d="M20.72,8.55a.72.72,0,0,1-.5-.2.67.67,0,0,1,0-1,.72.72,0,0,1,.5-.2H34a.7.7,0,0,1,.5.2.67.67,0,0,1,0,1,.7.7,0,0,1-.5.2Z"/><path class="cls-1" d="M40.14,14.33a.58.58,0,0,1-.45-.16.65.65,0,0,1-.22-.45.57.57,0,0,1,.17-.45.72.72,0,0,1,.46-.2l.57,0,.58,0c.1,0,.16-.06.19-.17l0-.09A89.36,89.36,0,0,0,45,1.46.72.72,0,0,1,45.27,1a.75.75,0,0,1,.54-.12.68.68,0,0,1,.45.31.65.65,0,0,1,.09.54,89.42,89.42,0,0,1-3.37,11c0,.1,0,.15.07.15,2.89-.22,5.9-.56,9.06-1,.1,0,.13-.07.09-.14q-.35-.7-2-3.87a.63.63,0,0,1,0-.52.66.66,0,0,1,.35-.4.73.73,0,0,1,1,.32c1,1.9,2,4,3.14,6.39a.65.65,0,0,1,0,.53.61.61,0,0,1-.38.37.58.58,0,0,1-.53,0,.68.68,0,0,1-.4-.38l-.47-1c0-.1-.11-.14-.23-.11A115,115,0,0,1,40.14,14.33Z"/></g></g></svg>