<svg xmlns="http://www.w3.org/2000/svg" width="169.25" height="16.48" viewBox="0 0 169.25 16.48"><defs><style>.cls-1{fill:#8c744b;}</style></defs><g id="レイヤー_2" data-name="レイヤー 2"><g id="レイヤー_1-2" data-name="レイヤー 1"><path class="cls-1" d="M.61,4.6a.59.59,0,0,1-.42-.18.57.57,0,0,1,0-.84A.58.58,0,0,1,.61,3.4H5.56A.54.54,0,0,1,6,3.57.54.54,0,0,1,6.16,4,.58.58,0,0,1,6,4.42a.58.58,0,0,1-.42.18ZM1.1,2.05a.57.57,0,0,1-.42-.17.57.57,0,0,1-.16-.41.57.57,0,0,1,.17-.42A.54.54,0,0,1,1.1.88H5.15a.56.56,0,0,1,.41.17.54.54,0,0,1,.18.42.54.54,0,0,1-.17.4.54.54,0,0,1-.42.18ZM.52,15.85V12.13a1,1,0,0,1,.3-.72.93.93,0,0,1,.71-.31H4.75a.92.92,0,0,1,.71.31,1,1,0,0,1,.3.72v2.55a1,1,0,0,1-.3.71.94.94,0,0,1-.71.3H1.87c-.06,0-.09,0-.09.11v0a.58.58,0,0,1-.19.44.58.58,0,0,1-.44.19.59.59,0,0,1-.44-.19A.58.58,0,0,1,.52,15.85ZM5.11,7.14H1.21A.58.58,0,0,1,.8,7a.57.57,0,0,1-.17-.41A.54.54,0,0,1,.8,6.17.57.57,0,0,1,1.21,6h3.9a.54.54,0,0,1,.4.16.53.53,0,0,1,.16.39A.56.56,0,0,1,5.51,7,.54.54,0,0,1,5.11,7.14ZM1.21,9.7a.56.56,0,0,1-.58-.58.54.54,0,0,1,.16-.4.54.54,0,0,1,.42-.18H5.09a.54.54,0,0,1,.42.18.54.54,0,0,1,.16.4.56.56,0,0,1-.58.58Zm.57,2.7v2c0,.11.05.17.15.17H4.41c.11,0,.16-.06.16-.17v-2c0-.1-.05-.15-.16-.15H1.93A.13.13,0,0,0,1.78,12.4Zm4.87,2.78a.67.67,0,0,1-.48,0,.61.61,0,0,1-.32-.35.66.66,0,0,1,0-.48,20.28,20.28,0,0,0,1.06-3.69.6.6,0,0,1,.72-.45.66.66,0,0,1,.4.27.65.65,0,0,1,.09.47A21.46,21.46,0,0,1,7,14.86.52.52,0,0,1,6.65,15.18ZM6.12,8.51a.7.7,0,0,1,0-.49.78.78,0,0,1,.32-.38A7.52,7.52,0,0,0,9.27,4.82.15.15,0,0,0,9.2,4.6c-.48-.26-1-.53-1.64-.81a.49.49,0,0,1-.27-.31.45.45,0,0,1,0-.41.58.58,0,0,1,.81-.27c.36.15.87.39,1.54.74.11,0,.18,0,.2-.07a7.44,7.44,0,0,0,.33-1.23c0-.09,0-.14-.13-.14H7.29a.57.57,0,0,1-.42-.17.55.55,0,0,1-.17-.42.58.58,0,0,1,.59-.6h7.56a1,1,0,0,1,.72.3,1,1,0,0,1,.31.71A27.56,27.56,0,0,1,15.6,5.8a4.61,4.61,0,0,1-.66,2,1.31,1.31,0,0,1-1.08.54,13.25,13.25,0,0,1-1.46-.11A.6.6,0,0,1,12,8a.71.71,0,0,1-.18-.47A.52.52,0,0,1,12,7.09.49.49,0,0,1,12.38,7a9.65,9.65,0,0,0,1,.09c.7,0,1.07-1.6,1.12-4.81,0-.09-.06-.14-.17-.14H11.79c-.11,0-.17.06-.2.18a9.82,9.82,0,0,1-.54,1.85c0,.08,0,.15.09.22l1.44,1a.57.57,0,0,1,.26.4.55.55,0,0,1-.1.45.59.59,0,0,1-.4.24.57.57,0,0,1-.46-.1L10.6,5.43c-.07-.06-.14,0-.21.05A9,9,0,0,1,7,8.8a.67.67,0,0,1-.5,0A.59.59,0,0,1,6.12,8.51Zm2.7,1.78A.68.68,0,0,1,9,9.78a.65.65,0,0,1,.49-.21.7.7,0,0,1,.51.22.69.69,0,0,1,.21.5v3.82a2.07,2.07,0,0,0,.06.68c0,.07.16.11.39.13l.79,0,.78,0a.65.65,0,0,0,.56-.34,4.6,4.6,0,0,0,.25-1.46.59.59,0,0,1,.22-.43.56.56,0,0,1,.46-.13.72.72,0,0,1,.43.22.59.59,0,0,1,.17.44,9.81,9.81,0,0,1-.26,1.87,1.23,1.23,0,0,1-.43.74,2.07,2.07,0,0,1-.92.24c-.37,0-.82.05-1.36.05L10,16.07a1.38,1.38,0,0,1-1-.32,2,2,0,0,1-.22-1.16Zm3.31.41A25.48,25.48,0,0,0,9.92,8.81a.53.53,0,0,1-.23-.37A.56.56,0,0,1,9.81,8a.57.57,0,0,1,.85-.12,23.6,23.6,0,0,1,2.28,1.92.6.6,0,0,1,.18.43.6.6,0,0,1-.18.44.51.51,0,0,1-.39.18A.53.53,0,0,1,12.13,10.7Zm2.2-.57a.6.6,0,0,1,.49,0,.65.65,0,0,1,.35.36,35.82,35.82,0,0,1,1.3,3.69.65.65,0,0,1,0,.49A.68.68,0,0,1,16,15a.62.62,0,0,1-.48,0,.66.66,0,0,1-.31-.38q-.59-2-1.26-3.63a.66.66,0,0,1,0-.5A.54.54,0,0,1,14.33,10.13Z"/><path class="cls-1" d="M17.68,16a.58.58,0,0,1-.32-.35.56.56,0,0,1,.05-.47,24.42,24.42,0,0,0,2.44-6.47.66.66,0,0,1,.29-.42.71.71,0,0,1,.51-.1.65.65,0,0,1,.5.78c-.11.5-.23,1-.38,1.51a.34.34,0,0,0,0,.27,7.79,7.79,0,0,0,1.59,2,6.69,6.69,0,0,0,2.19,1.21c.08,0,.12,0,.12-.1V6.15c0-.1,0-.14-.14-.14H20.5a.54.54,0,0,1-.42-.18.57.57,0,0,1-.17-.42.52.52,0,0,1,.17-.4.54.54,0,0,1,.42-.17h9.43a.57.57,0,0,1,.43.17.56.56,0,0,1,.17.4.61.61,0,0,1-.17.42.58.58,0,0,1-.43.18H26.32c-.11,0-.17,0-.17.14V8.9a.15.15,0,0,0,.17.17H31a.55.55,0,0,1,.4.16.52.52,0,0,1,.17.41.6.6,0,0,1-.57.6H26.32c-.11,0-.17,0-.17.16v3.8a.18.18,0,0,0,.15.18,33.36,33.36,0,0,0,5.7.39h.54A.6.6,0,0,1,33,15a.54.54,0,0,1,.16.43.63.63,0,0,1-.21.44.6.6,0,0,1-.44.18h-.56a25.81,25.81,0,0,1-7.49-.83,7.84,7.84,0,0,1-4.08-3s0,0-.08,0a.07.07,0,0,0-.08.06,24.43,24.43,0,0,1-1.61,3.51.61.61,0,0,1-.39.31A.72.72,0,0,1,17.68,16ZM32.46,5.57a.59.59,0,0,1-.47.2.63.63,0,0,1-.49-.2.66.66,0,0,1-.2-.48V3.2c0-.11-.05-.16-.14-.16H19.28c-.1,0-.15,0-.15.16V5.09a.65.65,0,0,1-.19.48.66.66,0,0,1-.49.2.62.62,0,0,1-.48-.2.69.69,0,0,1-.19-.48V2.89a1,1,0,0,1,.3-.72,1,1,0,0,1,.71-.3h5.55a.14.14,0,0,0,.16-.15v-1a.69.69,0,0,1,.21-.51A.73.73,0,0,1,25.22,0a.69.69,0,0,1,.5.21.67.67,0,0,1,.22.51v1c0,.1,0,.15.16.15h5.54a.94.94,0,0,1,.71.3,1,1,0,0,1,.3.72v2.2A.65.65,0,0,1,32.46,5.57Z"/><path class="cls-1" d="M42.37,15.42a10.08,10.08,0,0,1-5-1,3.08,3.08,0,0,1-1.82-2.74c0-1,.71-2.32,2.14-3.82a.6.6,0,0,1,.46-.2.69.69,0,0,1,.49.17.57.57,0,0,1,.21.42.56.56,0,0,1-.17.44C37.57,9.85,37,10.81,37,11.53a2.16,2.16,0,0,0,1.43,1.92,9.09,9.09,0,0,0,3.95.71,22.7,22.7,0,0,0,5.31-.61.62.62,0,0,1,.48.08.59.59,0,0,1,.28.39.73.73,0,0,1-.08.5.57.57,0,0,1-.39.29A24.52,24.52,0,0,1,42.37,15.42ZM37.82,2h9a.6.6,0,0,1,.44.18.6.6,0,0,1,.18.43.61.61,0,0,1-.62.62h-9A.58.58,0,0,1,37.39,3a.6.6,0,0,1-.18-.44.6.6,0,0,1,.18-.43A.58.58,0,0,1,37.82,2Z"/><path class="cls-1" d="M59.47,15.73c-4.52,0-6.78-1.31-6.78-3.91,0-1.58,1.11-3,3.33-4.12q.13-.08,0-.18a1.3,1.3,0,0,1-.16-.31q-.75-3-1.17-5.4a.64.64,0,0,1,.13-.53A.68.68,0,0,1,55.31,1a.76.76,0,0,1,.53.13.68.68,0,0,1,.28.45Q56.55,4,57.29,6.91V7c0,.1.08.12.17.07a42.07,42.07,0,0,1,6.62-2,.52.52,0,0,1,.48.08.58.58,0,0,1,.29.4.56.56,0,0,1-.1.48.71.71,0,0,1-.4.3,32.68,32.68,0,0,0-7.83,2.61c-1.6.88-2.39,1.86-2.39,2.93,0,1.76,1.78,2.65,5.34,2.65a38,38,0,0,0,4.86-.35.64.64,0,0,1,.47.14.62.62,0,0,1,.25.42.64.64,0,0,1-.14.47.66.66,0,0,1-.43.23A39.51,39.51,0,0,1,59.47,15.73Zm2.27-15a.59.59,0,0,1,.85.23c.55,1,.91,1.62,1.08,1.93a.52.52,0,0,1,0,.44.54.54,0,0,1-.3.33.58.58,0,0,1-.45,0,.61.61,0,0,1-.37-.29c-.32-.58-.67-1.2-1.07-1.87a.6.6,0,0,1-.06-.45A.57.57,0,0,1,61.74.77ZM64,.45a.58.58,0,0,1,.3-.37A.67.67,0,0,1,64.76,0a.55.55,0,0,1,.38.3c.33.54.7,1.19,1.12,1.94a.53.53,0,0,1,0,.46.57.57,0,0,1-.31.35.67.67,0,0,1-.48,0,.62.62,0,0,1-.37-.31L64.06.91A.58.58,0,0,1,64,.45Z"/><path class="cls-1" d="M69.84,8.44a.55.55,0,0,1-.41-.18.54.54,0,0,1-.18-.42.58.58,0,0,1,.18-.43.55.55,0,0,1,.41-.18H73.3a.14.14,0,0,0,.16-.16c0-.28.06-1.2.14-2.77q0-.15-.12-.15H70.27A.58.58,0,0,1,69.85,4a.56.56,0,0,1,0-.83A.58.58,0,0,1,70.27,3h3.28c.11,0,.16-.06.16-.17,0-.5.07-1,.11-1.56a.74.74,0,0,1,.24-.48.64.64,0,0,1,.5-.17A.67.67,0,0,1,75,.78a.54.54,0,0,1,.17.47c-.06.87-.09,1.38-.1,1.55s0,.15.14.15h6.3a.58.58,0,0,1,.43.18A.56.56,0,0,1,82,4a.55.55,0,0,1-.42.19H75.15c-.11,0-.16,0-.16.15-.07,1-.13,1.92-.16,2.79a.12.12,0,0,0,.14.14h5.49a.58.58,0,0,1,.42.18.56.56,0,0,1,.19.43.58.58,0,0,1-.18.42.58.58,0,0,1-.43.18H74.92c-.1,0-.15,0-.15.14,0,1.32-.07,2.14-.07,2.47a4.13,4.13,0,0,0,.64,2.77,4.1,4.1,0,0,0,2.78.65c2.81,0,4.21-1,4.21-2.92a3.94,3.94,0,0,0-.07-.77.83.83,0,0,1,.1-.51.67.67,0,0,1,.91-.23.56.56,0,0,1,.27.41,7.52,7.52,0,0,1,.11,1.19,3.56,3.56,0,0,1-1.4,3,6.82,6.82,0,0,1-4.13,1.05c-1.87,0-3.14-.33-3.8-1s-1-1.88-1-3.71c0-.65,0-1.47.06-2.47,0-.1,0-.14-.15-.14Z"/><path class="cls-1" d="M87,16.28a.69.69,0,0,1-1,0,.72.72,0,0,1-.2-.5V1.65a1,1,0,0,1,.3-.71,1,1,0,0,1,.71-.3h13.39a1,1,0,0,1,.71.3,1,1,0,0,1,.3.71V15.78a.72.72,0,0,1-.2.5.69.69,0,0,1-1,0,.72.72,0,0,1-.2-.5.1.1,0,0,0-.11-.11H87.32a.1.1,0,0,0-.11.11A.72.72,0,0,1,87,16.28Zm.2-14.36V14.41c0,.1.05.15.16.15H99.72c.11,0,.16-.05.16-.15V1.92c0-.1,0-.14-.16-.14H87.37C87.26,1.78,87.21,1.82,87.21,1.92ZM88.47,6.1A.51.51,0,0,1,88,5.61a.49.49,0,0,1,.15-.35.45.45,0,0,1,.34-.15h4.25c.11,0,.16-.05.16-.15V4.19c0-.1,0-.15-.16-.15H89.24a.45.45,0,0,1-.34-.14.49.49,0,0,1-.14-.34.48.48,0,0,1,.14-.34.46.46,0,0,1,.34-.15h3.51c.09,0,.13,0,.13-.12V2.84a.68.68,0,0,1,.2-.5.66.66,0,0,1,.48-.2.68.68,0,0,1,.49.2.72.72,0,0,1,.2.5V3a.11.11,0,0,0,.12.12h3.51a.49.49,0,0,1,.35.15.48.48,0,0,1,.14.34.49.49,0,0,1-.14.34.47.47,0,0,1-.35.14H94.41c-.11,0-.16,0-.16.15V5c0,.1,0,.15.16.15h4.23a.51.51,0,0,1,.5.5A.45.45,0,0,1,99,6a.49.49,0,0,1-.35.15Zm10.4,6.8a.47.47,0,0,1,.23.34.44.44,0,0,1-.12.38.61.61,0,0,1-.86.11c-1.1-.7-2.33-1.4-3.71-2.11-.1,0-.15,0-.15.07v1.52a.69.69,0,0,1-.19.49.67.67,0,0,1-.49.21.65.65,0,0,1-.49-.21.67.67,0,0,1-.21-.49V11.84a.09.09,0,0,0,0-.08.05.05,0,0,0-.08,0,27.93,27.93,0,0,1-3.88,2,.59.59,0,0,1-.81-.29A.46.46,0,0,1,88,13a.44.44,0,0,1,.3-.29A21.13,21.13,0,0,0,93,10.33s0-.05,0-.07,0,0-.05,0H90.32a1,1,0,0,1-.72-.3,1,1,0,0,1-.3-.71V7.81a1,1,0,0,1,.3-.72,1,1,0,0,1,.72-.29H96.8a1,1,0,0,1,.72.29,1,1,0,0,1,.31.72V9.23a1,1,0,0,1-.31.71,1,1,0,0,1-.72.3H94.93a.39.39,0,0,0-.27.12l0,0s0,0,0,0-.07.13,0,.18c.36.16.89.43,1.58.79q.18.07.27,0c.51-.35,1-.77,1.62-1.26a.5.5,0,0,1,.77,0,.56.56,0,0,1,.15.39.4.4,0,0,1-.18.35q-.61.53-1.32,1s0,0,0,.08a.08.08,0,0,0,0,.08Zm-8.1-3.62h5.58c.1,0,.15,0,.15-.16V7.91a.14.14,0,0,0-.15-.16H90.77c-.09,0-.14.06-.14.16V9.12C90.63,9.23,90.68,9.28,90.77,9.28Z"/><path class="cls-1" d="M105.39,15.6a.77.77,0,0,1-.53-.13.72.72,0,0,1-.32-.45,29.08,29.08,0,0,1-.73-6.67,29.16,29.16,0,0,1,.73-6.68.79.79,0,0,1,.85-.58.59.59,0,0,1,.42.26.52.52,0,0,1,.08.48,28.33,28.33,0,0,0-.7,6.52,28.24,28.24,0,0,0,.7,6.51.52.52,0,0,1-.08.48A.56.56,0,0,1,105.39,15.6Zm8.19-.74a7.22,7.22,0,0,1-3.9-.91,2.76,2.76,0,0,1-1.43-2.42,3.22,3.22,0,0,1,.49-1.55,7.12,7.12,0,0,1,1.33-1.67.74.74,0,0,1,.48-.19.69.69,0,0,1,.49.17.54.54,0,0,1,.18.42.6.6,0,0,1-.18.43,3.74,3.74,0,0,0-1.42,2.39,1.66,1.66,0,0,0,1,1.54,6.55,6.55,0,0,0,2.93.53,15.06,15.06,0,0,0,3.33-.38.62.62,0,0,1,.46.09.55.55,0,0,1,.24.4.66.66,0,0,1-.09.48.59.59,0,0,1-.38.26A16.35,16.35,0,0,1,113.58,14.86Zm3.08-12.24a.58.58,0,0,1,.43.18.6.6,0,0,1,.18.43.6.6,0,0,1-.18.44.58.58,0,0,1-.43.18h-6.41a.6.6,0,0,1-.44-.18.58.58,0,0,1-.19-.44.57.57,0,0,1,.19-.43.6.6,0,0,1,.44-.18Z"/><path class="cls-1" d="M121.36,5a.62.62,0,0,1-.5-.08.67.67,0,0,1-.3-.41.59.59,0,0,1,.09-.51.67.67,0,0,1,.42-.32,33.16,33.16,0,0,1,7.34-1.2q6.78,0,6.79,5.67a5.58,5.58,0,0,1-2.72,5c-1.81,1.16-4.51,1.77-8.08,1.85a.68.68,0,0,1-.7-.67.56.56,0,0,1,.17-.47.61.61,0,0,1,.46-.2q9.39-.18,9.39-5.38a4.12,4.12,0,0,0-1.32-3.36,6.42,6.42,0,0,0-4.1-1.08A31.92,31.92,0,0,0,121.36,5Z"/><path class="cls-1" d="M141.73,15.42c-.93,0-1.8-.67-2.59-2A9.45,9.45,0,0,1,138,8.53,23.37,23.37,0,0,1,138.58,3a.72.72,0,0,1,.32-.44.82.82,0,0,1,.53-.12.56.56,0,0,1,.42.26.59.59,0,0,1,.08.5,23.2,23.2,0,0,0-.61,5.31,8.46,8.46,0,0,0,.83,3.93c.55,1.06,1.11,1.59,1.67,1.59.36,0,.82-.33,1.37-1a11,11,0,0,0,1.58-2.83.74.74,0,0,1,.37-.37.68.68,0,0,1,.52,0,.69.69,0,0,1,.36.37.57.57,0,0,1,0,.51A10.46,10.46,0,0,1,144,14.17,3.35,3.35,0,0,1,141.73,15.42Zm9.11-2.54a24.15,24.15,0,0,0-2.09-9.57.64.64,0,0,1,0-.49.58.58,0,0,1,.35-.32.77.77,0,0,1,.54,0,.78.78,0,0,1,.38.36,24.45,24.45,0,0,1,2.22,10,.68.68,0,0,1-.69.69.66.66,0,0,1-.48-.2A.7.7,0,0,1,150.84,12.88Z"/><path class="cls-1" d="M155.27,3.59a.59.59,0,0,1-.44-.19.64.64,0,0,1,0-.88.65.65,0,0,1,.45-.19q6.24,0,13.32-.34a.59.59,0,0,1,.44.17.71.71,0,0,1,.2.44.58.58,0,0,1-.16.46.75.75,0,0,1-.45.23,13.08,13.08,0,0,0-6.48,2.2,5.12,5.12,0,0,0-2.25,4.17,4.12,4.12,0,0,0,1.39,3.28,5.45,5.45,0,0,0,3.7,1.2,11.47,11.47,0,0,0,1.61-.11.71.71,0,0,1,.49.12.55.55,0,0,1,.25.42.62.62,0,0,1-.14.49.64.64,0,0,1-.44.25,15.74,15.74,0,0,1-1.82.11,7.05,7.05,0,0,1-4.75-1.52,5.15,5.15,0,0,1-1.76-4.11A5.7,5.7,0,0,1,159.82,6a9.32,9.32,0,0,1,3.94-2.61s0,0,0,0,0,0,0,0C160.85,3.5,158,3.57,155.27,3.59Z"/></g></g></svg>