<svg xmlns="http://www.w3.org/2000/svg" width="55" height="17" viewBox="0 0 54.88 16.13"><defs><style>.cls-1{fill:#323333;}</style></defs><title>アセット 6</title><g id="レイヤー_2" data-name="レイヤー 2"><g id="レイヤー_1-2" data-name="レイヤー 1"><path class="cls-1" d="M.27,15A.58.58,0,0,1,0,14.58a.64.64,0,0,1,.12-.5,15.16,15.16,0,0,0,1.72-3.44.55.55,0,0,1,.32-.35.6.6,0,0,1,.49,0,.65.65,0,0,1,.38.33.59.59,0,0,1,0,.5,15.05,15.05,0,0,1-1.87,3.74.64.64,0,0,1-.44.28A.65.65,0,0,1,.27,15ZM1.66,1.64A1,1,0,0,1,2,.93a1,1,0,0,1,.72-.3H13.59a1,1,0,0,1,.72.3,1,1,0,0,1,.31.71v6a1,1,0,0,1-.31.71,1,1,0,0,1-.72.3H2.68A1,1,0,0,1,2,8.36a1,1,0,0,1-.3-.71Zm1.4.29v2c0,.1,0,.15.16.15H7.29c.11,0,.16-.05.16-.15v-2c0-.11,0-.17-.16-.17H3.22C3.11,1.76,3.06,1.82,3.06,1.93Zm0,3.34V7.4c0,.09,0,.14.16.14H7.29c.11,0,.16,0,.16-.14V5.27c0-.09,0-.14-.16-.14H3.22C3.11,5.13,3.06,5.18,3.06,5.27ZM6.14,16c-.88-.06-1.41-.22-1.61-.47a3.75,3.75,0,0,1-.3-1.93V10.46a.7.7,0,0,1,.7-.72.72.72,0,0,1,.72.72v2.88a3.53,3.53,0,0,0,.11,1.19c.07.13.32.21.74.25a18,18,0,0,0,1.87.07c.78,0,1.41,0,1.89-.07l.82-.09a.82.82,0,0,0,.43-.27,1.07,1.07,0,0,0,.26-.58c0-.23.08-.6.13-1.11a.66.66,0,0,1,.23-.44.59.59,0,0,1,.47-.12.66.66,0,0,1,.46.25.73.73,0,0,1,.15.5Q13.12,14,13,14.54a1.6,1.6,0,0,1-.4.86,1.33,1.33,0,0,1-.68.41,9.19,9.19,0,0,1-1.22.16c-.58,0-1.34.07-2.29.07C7.75,16,7,16,6.14,16ZM7.56,9.65A.64.64,0,0,1,8,9.5a.72.72,0,0,1,.44.2,24.48,24.48,0,0,1,1.89,2.18.54.54,0,0,1,.12.46.66.66,0,0,1-.25.42.52.52,0,0,1-.45.12.69.69,0,0,1-.43-.24,26.17,26.17,0,0,0-1.83-2.16A.56.56,0,0,1,7.34,10,.54.54,0,0,1,7.56,9.65ZM8.82,1.93v2c0,.1,0,.15.16.15h4.07c.11,0,.16-.05.16-.15v-2c0-.11-.05-.17-.16-.17H9C8.87,1.76,8.82,1.82,8.82,1.93Zm0,3.34V7.4c0,.09,0,.14.16.14h4.07c.11,0,.16,0,.16-.14V5.27c0-.09-.05-.14-.16-.14H9C8.87,5.13,8.82,5.18,8.82,5.27Zm5.49,5a35.89,35.89,0,0,1,2,3.87.72.72,0,0,1,0,.52.7.7,0,0,1-.35.37.6.6,0,0,1-.49,0,.59.59,0,0,1-.36-.33,33.7,33.7,0,0,0-2-3.83.64.64,0,0,1-.05-.49.6.6,0,0,1,.3-.38.72.72,0,0,1,.52,0A.7.7,0,0,1,14.31,10.31Z"/><path class="cls-1" d="M24.82,15.23c-.93,0-1.8-.67-2.59-2A9.46,9.46,0,0,1,21,8.33a23.35,23.35,0,0,1,.63-5.5A.74.74,0,0,1,22,2.38a.76.76,0,0,1,.53-.11A.6.6,0,0,1,23,3a23.33,23.33,0,0,0-.61,5.31,8.54,8.54,0,0,0,.83,3.94c.55,1.06,1.11,1.59,1.67,1.59.36,0,.82-.33,1.37-1A11.17,11.17,0,0,0,27.86,10a.7.7,0,0,1,.37-.37.68.68,0,0,1,.52,0,.74.74,0,0,1,.37.37.61.61,0,0,1,0,.51A10.57,10.57,0,0,1,27,14,3.35,3.35,0,0,1,24.82,15.23Zm9.11-2.54a24.2,24.2,0,0,0-2.09-9.58.62.62,0,0,1,0-.48.6.6,0,0,1,.35-.33.74.74,0,0,1,.53,0,.69.69,0,0,1,.39.36,24.45,24.45,0,0,1,2.22,10,.7.7,0,0,1-.2.49.67.67,0,0,1-.49.19.65.65,0,0,1-.48-.19A.72.72,0,0,1,33.93,12.69Z"/><path class="cls-1" d="M41.78,15.93a.68.68,0,0,1-.49.2.7.7,0,0,1-.49-.2.64.64,0,0,1-.21-.49V9.5A.63.63,0,0,1,40.8,9a.7.7,0,0,1,.49-.2.68.68,0,0,1,.49.2.66.66,0,0,1,.2.48v4.11a.14.14,0,0,0,.16.16h4.71c.11,0,.17,0,.17-.16V7.52c0-.09-.06-.14-.17-.14H42.46a1,1,0,0,1-1-1V2.25a.71.71,0,0,1,.19-.5.7.7,0,0,1,.49-.2.68.68,0,0,1,.7.7V6c0,.11,0,.16.15.16h3.88c.11,0,.17,0,.17-.16V.72a.68.68,0,0,1,.21-.51A.73.73,0,0,1,47.74,0a.69.69,0,0,1,.5.21.69.69,0,0,1,.22.51V6c0,.11,0,.16.14.16h3.91c.09,0,.14,0,.14-.16V2.25a.69.69,0,0,1,.21-.5.7.7,0,0,1,.49-.2.68.68,0,0,1,.49.2.72.72,0,0,1,.2.5v4.1a1,1,0,0,1-.31.72,1,1,0,0,1-.72.31H48.6a.12.12,0,0,0-.14.14v6.09c0,.11,0,.16.14.16h4.74a.14.14,0,0,0,.16-.16V9.5A.65.65,0,0,1,53.69,9a.7.7,0,0,1,.49-.2.72.72,0,0,1,.5.2.66.66,0,0,1,.2.48v5.94a.66.66,0,0,1-.2.49.72.72,0,0,1-.5.2.7.7,0,0,1-.49-.2.66.66,0,0,1-.19-.49v-.3a.13.13,0,0,0-.15-.15H42.12c-.1,0-.14,0-.14.15v.3A.66.66,0,0,1,41.78,15.93Z"/></g></g></svg>