<svg xmlns="http://www.w3.org/2000/svg" width="75" height="17" viewBox="0 0 74.5 16.01"><defs><style>.cls-1{fill:#4d4d4d;}</style></defs><title>アセット 10</title><g id="レイヤー_2" data-name="レイヤー 2"><g id="レイヤー_1-2" data-name="レイヤー 1"><path class="cls-1" d="M4,15.42A4,4,0,0,1,1.2,14.35,3.22,3.22,0,0,1,0,11.87,3.77,3.77,0,0,1,1.29,9.11,7.37,7.37,0,0,1,4.93,7.33a.17.17,0,0,0,.16-.18v-3c0-.1,0-.15-.16-.15H1.22a.58.58,0,0,1-.57-.57A.57.57,0,0,1,.82,3a.56.56,0,0,1,.4-.17H4.93c.11,0,.16-.05.16-.14V1.07a.63.63,0,0,1,.2-.46A.64.64,0,0,1,5.76.42a.62.62,0,0,1,.46.19.62.62,0,0,1,.19.46V2.73c0,.09,0,.14.16.14h3.89a.56.56,0,0,1,.4.17.53.53,0,0,1,.17.41.52.52,0,0,1-.17.4.56.56,0,0,1-.4.17H6.57c-.11,0-.16.05-.16.15V6.94a.13.13,0,0,0,.14.14C7.18,7,7.67,7,8,7a7.09,7.09,0,0,1,4.32,1.2A3.45,3.45,0,0,1,14,11c0,2.59-1.5,4.12-4.48,4.59A.61.61,0,0,1,9,15.51a.59.59,0,0,1-.27-.4.48.48,0,0,1,.09-.43.6.6,0,0,1,.39-.24q3.39-.55,3.39-3.34a2.41,2.41,0,0,0-1.24-2A5.83,5.83,0,0,0,8,8.27a12.77,12.77,0,0,0-1.48.07c-.09,0-.14.06-.14.18V13a2.66,2.66,0,0,1-.56,1.91A2.62,2.62,0,0,1,4,15.42ZM5,8.61a5.89,5.89,0,0,0-2.7,1.32,2.63,2.63,0,0,0-.94,1.94,2.21,2.21,0,0,0,.8,1.64,2.47,2.47,0,0,0,1.72.74,1.34,1.34,0,0,0,1-.3,1.46,1.46,0,0,0,.28-1V8.74C5.09,8.63,5.05,8.59,5,8.61Zm8.14-6a25,25,0,0,1,2.19,2.8.61.61,0,0,1,.1.47.53.53,0,0,1-.26.38.51.51,0,0,1-.45.09.6.6,0,0,1-.38-.25,25.85,25.85,0,0,0-2.14-2.76A.51.51,0,0,1,12,3a.51.51,0,0,1,.21-.39.66.66,0,0,1,.45-.14A.55.55,0,0,1,13.09,2.64Z"/><path class="cls-1" d="M19.87,8.07a.61.61,0,0,1-.61-.61A.6.6,0,0,1,19.44,7a.56.56,0,0,1,.43-.19h3.06c.11,0,.16,0,.16-.14V3.16A.14.14,0,0,0,22.93,3H21.78a.18.18,0,0,0-.2.14,17.46,17.46,0,0,1-1,2.59.59.59,0,0,1-.36.33.62.62,0,0,1-.5,0,.53.53,0,0,1-.32-.32.57.57,0,0,1,0-.46A23.23,23.23,0,0,0,21,.51a.55.55,0,0,1,.27-.39A.61.61,0,0,1,21.73,0a.54.54,0,0,1,.39.25.56.56,0,0,1,.09.47c0,.09-.05.24-.1.45s-.07.36-.1.47,0,.14.11.14H26.6A.58.58,0,0,1,27,2a.58.58,0,0,1,.18.43.62.62,0,0,1-.6.6h-2c-.09,0-.14,0-.14.16V6.69a.13.13,0,0,0,.14.14h2.24a.57.57,0,0,1,.43.19.6.6,0,0,1,.18.44.58.58,0,0,1-.18.43.6.6,0,0,1-.43.18H24.55a.14.14,0,0,0-.16.13,5.79,5.79,0,0,1-.09.59.31.31,0,0,0,.05.27q1.53,2.31,2.88,4.57a.69.69,0,0,1,.09.52.76.76,0,0,1-.3.44.71.71,0,0,1-.49.09.57.57,0,0,1-.39-.29c-.66-1.13-1.4-2.33-2.2-3.6a.07.07,0,0,0-.06,0,.1.1,0,0,0-.07,0,10.21,10.21,0,0,1-3.24,4.88.55.55,0,0,1-.49.12.72.72,0,0,1-.46-.28A.68.68,0,0,1,19.5,15a.74.74,0,0,1,.26-.45A9.31,9.31,0,0,0,23,8.2c0-.09,0-.13-.12-.13Zm9.3,7.75a.62.62,0,0,1-.46.19.64.64,0,0,1-.47-.19.63.63,0,0,1-.2-.46V2.42a1,1,0,0,1,.31-.71,1,1,0,0,1,.72-.3h5a1,1,0,0,1,.71.3,1,1,0,0,1,.3.71V15.34a.67.67,0,0,1-.19.48.7.7,0,0,1-1,0,.61.61,0,0,1-.2-.48V15c0-.1,0-.14-.15-.14h-4c-.11,0-.16,0-.16.14v.34A.66.66,0,0,1,29.17,15.82Zm.19-13V13.53c0,.09.05.14.16.14h4c.1,0,.15-.05.15-.14V2.78c0-.1,0-.14-.15-.14h-4C29.41,2.64,29.36,2.68,29.36,2.78Z"/><path class="cls-1" d="M41.49,10.27a.65.65,0,0,1-.39-.3.74.74,0,0,1-.1-.48c.2-1.11.42-2.58.69-4.41A.66.66,0,0,1,42,4.62a.71.71,0,0,1,.51-.13.57.57,0,0,1,.45.24.69.69,0,0,1,.13.5c-.22,1.53-.4,2.73-.54,3.58v0h0a9.7,9.7,0,0,1,2.88-1.52,9.62,9.62,0,0,1,3.15-.59q5,0,5,4a4,4,0,0,1-2,3.61,11,11,0,0,1-5.83,1.25c-.91,0-1.94,0-3.1-.15a.62.62,0,0,1-.42-.22.66.66,0,0,1-.15-.46.57.57,0,0,1,.21-.42.66.66,0,0,1,.44-.14c1.2.12,2.2.18,3,.18,4.18,0,6.26-1.22,6.26-3.65q0-2.84-3.69-2.83a8.35,8.35,0,0,0-2.85.58A12.32,12.32,0,0,0,42.61,10,1.31,1.31,0,0,1,41.49,10.27Zm2.27-8.82a59.6,59.6,0,0,0,6.84.47A.58.58,0,0,1,51,2.1a.57.57,0,0,1,0,.84.6.6,0,0,1-.44.18,56.7,56.7,0,0,1-7-.47.52.52,0,0,1-.41-.22A.63.63,0,0,1,43.07,2a.57.57,0,0,1,.23-.4A.59.59,0,0,1,43.76,1.45Z"/><path class="cls-1" d="M59.72,5.61a.57.57,0,0,1-.41-.18A.54.54,0,0,1,59.13,5a.58.58,0,0,1,.18-.43.57.57,0,0,1,.41-.18h2.16c.1,0,.15-.05.15-.16V1.61a.59.59,0,0,1,.2-.46A.62.62,0,0,1,62.69,1a.64.64,0,0,1,.47.19.63.63,0,0,1,.2.46V4.22a.14.14,0,0,0,.16.16c2.22,0,4.46-.09,6.72-.16a.14.14,0,0,0,.16-.16V1.12a.62.62,0,0,1,.19-.46.63.63,0,0,1,.46-.18.61.61,0,0,1,.45.18.62.62,0,0,1,.19.46V4a.13.13,0,0,0,.15.15l2-.07a.46.46,0,0,1,.41.15.6.6,0,0,1,.2.42.55.55,0,0,1-.15.42.61.61,0,0,1-.42.19l-2.09.09c-.1,0-.15.06-.15.17V8.43a3.55,3.55,0,0,1-.33,1.88,1.57,1.57,0,0,1-1.34.46,12.15,12.15,0,0,1-3.24-.59.62.62,0,0,1-.38-.31.66.66,0,0,1-.05-.5.6.6,0,0,1,.3-.36A.59.59,0,0,1,67.12,9a11.25,11.25,0,0,0,2.65.53c.31,0,.49-.06.55-.18a4.23,4.23,0,0,0,.08-1.12V5.57a.14.14,0,0,0-.16-.16q-3.39.11-6.72.16a.14.14,0,0,0-.16.16v5.55a6.86,6.86,0,0,0,.1,1.33,2.65,2.65,0,0,0,.34.88,1.43,1.43,0,0,0,.77.56,5.55,5.55,0,0,0,1.23.25c.47,0,1.1.07,1.88.07a33,33,0,0,0,4.37-.27.62.62,0,0,1,.46.12.52.52,0,0,1,.23.4.62.62,0,0,1-.13.47.59.59,0,0,1-.41.24,34,34,0,0,1-4.52.27c-.8,0-1.48,0-2-.08a7,7,0,0,1-1.49-.27,3.15,3.15,0,0,1-1-.49,2.36,2.36,0,0,1-.65-.8,3.45,3.45,0,0,1-.35-1.14A11.1,11.1,0,0,1,62,11.28V5.75c0-.11-.05-.16-.15-.16H59.72Z"/></g></g></svg>