<svg xmlns="http://www.w3.org/2000/svg" width="73" height="16" viewBox="0 0 72.95 15.37"><defs><style>.cls-1{fill:#8c744b;}</style></defs><title>アセット 7</title><g id="レイヤー_2" data-name="レイヤー 2"><g id="レイヤー_1-2" data-name="レイヤー 1"><path class="cls-1" d="M4,15A4,4,0,0,1,1.2,14,3.22,3.22,0,0,1,0,11.47,3.81,3.81,0,0,1,1.29,8.7,7.45,7.45,0,0,1,4.93,6.93a.17.17,0,0,0,.16-.18v-3c0-.09,0-.14-.16-.14H1.22a.56.56,0,0,1-.4-.17A.57.57,0,0,1,.65,3a.58.58,0,0,1,.57-.57H4.93c.11,0,.16-.05.16-.15V.67a.61.61,0,0,1,.2-.46A.64.64,0,0,1,5.76,0a.62.62,0,0,1,.46.19.6.6,0,0,1,.19.46V2.32c0,.1,0,.15.16.15h3.89a.56.56,0,0,1,.4.17A.52.52,0,0,1,11,3a.53.53,0,0,1-.17.41.56.56,0,0,1-.4.17H6.57c-.11,0-.16,0-.16.14V6.54a.13.13,0,0,0,.14.14c.63,0,1.12-.07,1.48-.07A7.16,7.16,0,0,1,12.35,7.8,3.48,3.48,0,0,1,14,10.64c0,2.59-1.5,4.12-4.48,4.59A.66.66,0,0,1,9,15.11a.59.59,0,0,1-.27-.4.48.48,0,0,1,.09-.43A.56.56,0,0,1,9.23,14q3.39-.55,3.39-3.35a2.43,2.43,0,0,0-1.24-2A5.91,5.91,0,0,0,8,7.87a12.77,12.77,0,0,0-1.48.07c-.09,0-.14.06-.14.18v4.43a2.67,2.67,0,0,1-.56,1.91A2.62,2.62,0,0,1,4,15Zm1-6.8a6,6,0,0,0-2.7,1.31,2.67,2.67,0,0,0-.94,2,2.22,2.22,0,0,0,.8,1.64,2.46,2.46,0,0,0,1.72.73,1.38,1.38,0,0,0,1-.29,1.46,1.46,0,0,0,.28-1V8.34C5.09,8.23,5.05,8.19,5,8.21Zm8.14-6A26.1,26.1,0,0,1,15.28,5a.61.61,0,0,1,.1.47.55.55,0,0,1-.26.38.58.58,0,0,1-.45.09.6.6,0,0,1-.38-.25A25.85,25.85,0,0,0,12.15,3,.51.51,0,0,1,12,2.55a.51.51,0,0,1,.21-.39A.61.61,0,0,1,12.67,2,.57.57,0,0,1,13.09,2.23Z"/><path class="cls-1" d="M20.34,15.23a.62.62,0,0,1-.39-.32.56.56,0,0,1,0-.49,85.49,85.49,0,0,0,3-10.8c0-.08,0-.13-.1-.13h-2a.58.58,0,0,1-.42-.18.55.55,0,0,1-.18-.41.58.58,0,0,1,.18-.43.58.58,0,0,1,.42-.18H23a.19.19,0,0,0,.2-.16c.08-.41.18-.93.29-1.55A.62.62,0,0,1,23.8.15.73.73,0,0,1,24.3,0a.51.51,0,0,1,.42.24.63.63,0,0,1,.12.48c0,.16-.08.4-.14.71s-.11.56-.13.71,0,.15.13.15h5.77a.58.58,0,0,1,.42.18.59.59,0,0,1-.42,1h-6a.18.18,0,0,0-.18.15A87.84,87.84,0,0,1,21.2,14.76a.71.71,0,0,1-.33.41A.69.69,0,0,1,20.34,15.23Zm13.37-1.67a.58.58,0,0,1,.44.1.57.57,0,0,1,.23.4.56.56,0,0,1-.12.45.57.57,0,0,1-.38.23,20.3,20.3,0,0,1-3.23.27,7.43,7.43,0,0,1-3.74-.82A2.45,2.45,0,0,1,25.49,12a3.45,3.45,0,0,1,1.56-2.43.58.58,0,0,1,.87.06.48.48,0,0,1,.15.39.46.46,0,0,1-.19.38c-.71.57-1.06,1.06-1.06,1.48s.35,1,1.05,1.36a6.29,6.29,0,0,0,2.78.53A19.73,19.73,0,0,0,33.71,13.56Zm-6.17-6.3a.56.56,0,0,1-.45-.13.6.6,0,0,1-.22-.4A.61.61,0,0,1,27,6.27a.58.58,0,0,1,.41-.22,56,56,0,0,1,6.05-.4.61.61,0,0,1,.43.17.6.6,0,0,1,0,.86.55.55,0,0,1-.41.18A51.64,51.64,0,0,0,27.54,7.26Z"/><path class="cls-1" d="M44.39,15.37a4.64,4.64,0,0,1-3.25-.94,3.18,3.18,0,0,1-1-2.42A2.69,2.69,0,0,1,41.22,9.7a5.24,5.24,0,0,1,3.17-.81,8.13,8.13,0,0,1,2,.26.08.08,0,0,0,.09,0,.13.13,0,0,0,0-.1V.88A.63.63,0,0,1,46.76.4a.68.68,0,0,1,.49-.2.7.7,0,0,1,.49.2.65.65,0,0,1,.19.48v2.4c0,.11.06.16.17.16h5.11a.58.58,0,0,1,.43.18.57.57,0,0,1,0,.83.58.58,0,0,1-.43.18H48.1c-.11,0-.17,0-.17.16v4.7a.2.2,0,0,0,.15.21A27.78,27.78,0,0,1,53.48,13a.67.67,0,0,1,.11.94.73.73,0,0,1-.45.25.66.66,0,0,1-.49-.13,29.7,29.7,0,0,0-4.59-3c-.08,0-.13,0-.13.09v.25a4.38,4.38,0,0,1-.87,3A3.4,3.4,0,0,1,44.39,15.37Zm0-5.25q-2.88,0-2.88,1.89,0,2.16,2.88,2.16A2,2,0,0,0,46,13.53a3.44,3.44,0,0,0,.51-2.12v-.79a.19.19,0,0,0-.15-.2A7.78,7.78,0,0,0,44.39,10.12Z"/><path class="cls-1" d="M62.54,9.72a.69.69,0,0,1-.48.2.63.63,0,0,1-.46-.2.61.61,0,0,1-.2-.47V1.53a.62.62,0,0,1,.2-.48.68.68,0,0,1,1,0,.65.65,0,0,1,.19.48v4.2h0a8.13,8.13,0,0,1,2.46-3.32,5.34,5.34,0,0,1,3.32-1.2,3.83,3.83,0,0,1,3.22,1.5A6.86,6.86,0,0,1,73,7c0,2.76-.74,4.81-2.24,6.15s-3.83,2-7,2.13a.61.61,0,0,1-.45-.18.64.64,0,0,1-.21-.45.6.6,0,0,1,.59-.63c2.79-.07,4.8-.67,6-1.78S71.51,9.34,71.51,7a5.76,5.76,0,0,0-.78-3.31,2.6,2.6,0,0,0-2.28-1.12,4.88,4.88,0,0,0-3.6,1.93,8.69,8.69,0,0,0-2.07,4.78A.74.74,0,0,1,62.54,9.72Z"/></g></g></svg>